<?xml version="1.0" encoding="UTF-8"?>
<svg id="Layer_2" data-name="Layer 2" xmlns="http://www.w3.org/2000/svg" viewBox="0 0 70.53 61.11">
  <defs>
    <style>
      .cls-1 {
        stroke-width: .84px;
      }

      .cls-1, .cls-2 {
        stroke: #2d2624;
      }

      .cls-1, .cls-2, .cls-3, .cls-4 {
        stroke-miterlimit: 10;
      }

      .cls-1, .cls-2, .cls-5 {
        fill: #729b39;
      }

      .cls-2 {
        stroke-width: .86px;
      }

      .cls-3 {
        fill: #f16729;
        stroke-width: 1.67px;
      }

      .cls-3, .cls-4 {
        stroke: #963711;
      }

      .cls-6 {
        fill: #2d2624;
      }

      .cls-4 {
        fill: none;
        stroke-width: 1.59px;
      }
    </style>
  </defs>
  <circle class="cls-3" cx="42.01" cy="32.59" r="27.69"/>
  <path class="cls-4" d="M16.81,27.12s23.22,35.71,53.05,10.64"/>
  <g>
    <path class="cls-1" d="M16.89,25.89s-22.82,1.46-14.73,21.23c0,0,11.49.25,14.73-21.23Z"/>
    <g>
      <path class="cls-5" d="M16.68,26.37s-8.04,2.76-9.03,10.13"/>
      <path class="cls-6" d="M16.82,26.76c-4.35,1.52-8.4,5-9.16,9.73.18-1.17.42-2.35.97-3.43,1.57-3.3,4.6-5.69,7.92-7.1l.27.79h0Z"/>
    </g>
  </g>
  <g>
    <path class="cls-2" d="M16.61,26.61S.86,9.28,20.9.51c0,0,8.63,8-4.29,26.1Z"/>
    <g>
      <path class="cls-5" d="M16.8,26.11s-3.95-7.75.58-13.88"/>
      <path class="cls-6" d="M16.41,26.31c-1.93-4.48-2.16-10.09.96-14.07-.64,1.03-1.24,2.1-1.52,3.27-.96,3.46-.23,7.25,1.33,10.41l-.76.39h-.01Z"/>
    </g>
  </g>
</svg>