<?xml version="1.0" encoding="UTF-8"?>
<svg id="Layer_2" data-name="Layer 2" xmlns="http://www.w3.org/2000/svg" viewBox="0 0 124.66 89.67">
  <defs>
    <style>
      .cls-1 {
        stroke-width: 1.39px;
      }

      .cls-1, .cls-2 {
        stroke: #2d2624;
      }

      .cls-1, .cls-2, .cls-3, .cls-4 {
        stroke-miterlimit: 10;
      }

      .cls-1, .cls-2, .cls-5 {
        fill: #729b39;
      }

      .cls-2 {
        stroke-width: 1.43px;
      }

      .cls-3 {
        fill: #fbf4ac;
        stroke: #7c371d;
        stroke-width: 2.4px;
      }

      .cls-6 {
        fill: #8f0118;
      }

      .cls-4 {
        fill: #f16729;
        stroke: #963711;
        stroke-width: 1.34px;
      }

      .cls-7 {
        fill: #2d2624;
      }
    </style>
  </defs>
  <path class="cls-4" d="M28.81,30.91s4.3,56.18,41.44,58.02,64.77-30.39,49.42-66.31L28.8,30.91h0Z"/>
  <path class="cls-3" d="M39.86,40.73s-22.41-4.91-7.98-21.49,57.71-27.94,78.59-5.53l4.3,5.22s11.67-4.3,7.37,4.3c-4.3,8.6.23,16.47-8.9,26.71-10.13,11.36-40.52,27.32-70.3,7.67,0,0-10.44-8.29-3.07-16.88h0Z"/>
  <path class="cls-6" d="M51.22,38.28s35.92,15.96,46.97-8.6c0,0,1.23-11.67-27.94-10.74,0,0-19.95,4.3-19.03,19.34h0Z"/>
  <g>
    <path class="cls-1" d="M39.5,53.23S5.25,36.61.75,71.89c0,0,16.43,9.8,38.75-18.66Z"/>
    <g>
      <path class="cls-5" d="M38.82,53.75s-13.9-2.61-21.39,7.26"/>
      <path class="cls-7" d="M38.69,54.43c-7.54-1.37-16.27.35-21.26,6.57,1.22-1.54,2.54-3.06,4.21-4.17,4.98-3.49,11.33-4.46,17.3-3.78l-.26,1.37h.01Z"/>
    </g>
  </g>
  <g>
    <path class="cls-2" d="M38.35,52.73S1.69,65.95.91,29.55c0,0,17.79-8.2,37.44,23.18Z"/>
    <g>
      <path class="cls-5" d="M37.71,52.13s-14.44,1.15-20.99-9.7"/>
      <path class="cls-7" d="M37.77,52.84c-8.12.13-16.9-3.08-21.05-10.41,1.17,1.64,2.44,3.24,4.07,4.42,4.71,3.67,11.02,4.96,16.87,4.57l.11,1.42h0Z"/>
    </g>
  </g>
</svg>