<?xml version="1.0" encoding="UTF-8"?>
<svg id="Layer_2" data-name="Layer 2" xmlns="http://www.w3.org/2000/svg" viewBox="0 0 911.15 913.19">
  <defs>
    <style>
      .cls-1 {
        stroke-width: 1.43px;
      }

      .cls-1, .cls-2, .cls-3, .cls-4 {
        stroke-miterlimit: 10;
      }

      .cls-1, .cls-5, .cls-4 {
        fill: #729b39;
      }

      .cls-1, .cls-4 {
        stroke: #2d2624;
      }

      .cls-6 {
        fill: #2d2624;
      }

      .cls-2 {
        fill: #f16729;
        stroke: #963711;
        stroke-width: 1.34px;
      }

      .cls-3 {
        fill: #fbf4ac;
        stroke: #7c371d;
        stroke-width: 2.4px;
      }

      .cls-7 {
        fill: #8f0118;
      }

      .cls-4 {
        stroke-width: 1.39px;
      }
    </style>
  </defs>
  <path class="cls-2" d="m253.39,827.66s4.3,56.18,41.44,58.02c37.14,1.84,64.77-30.39,49.42-66.31l-90.87,8.29Z"/>
  <path class="cls-3" d="m264.44,837.48s-22.41-4.91-7.98-21.49c14.43-16.58,57.71-27.94,78.59-5.53l4.3,5.22s11.67-4.3,7.37,4.3c-4.3,8.6.23,16.47-8.9,26.71-10.13,11.36-40.52,27.32-70.3,7.67,0,0-10.44-8.29-3.07-16.88Z"/>
  <path class="cls-7" d="m275.8,835.03s35.92,15.96,46.97-8.6c0,0,1.23-11.67-27.94-10.74,0,0-19.95,4.3-19.03,19.34Z"/>
  <g>
    <path class="cls-4" d="m264.08,849.98s-34.25-16.62-38.75,18.66c0,0,16.43,9.8,38.75-18.66Z"/>
    <g>
      <path class="cls-5" d="m263.4,850.5s-13.9-2.61-21.39,7.26"/>
      <path class="cls-6" d="m263.27,851.18c-7.54-1.37-16.27.35-21.26,6.57,1.22-1.54,2.54-3.06,4.21-4.17,4.98-3.49,11.33-4.46,17.3-3.78,0,0-.26,1.37-.26,1.37h0Z"/>
    </g>
  </g>
  <g>
    <path class="cls-1" d="m262.93,849.48s-36.66,13.22-37.44-23.18c0,0,17.79-8.2,37.44,23.18Z"/>
    <g>
      <path class="cls-5" d="m262.29,848.88s-14.44,1.15-20.99-9.7"/>
      <path class="cls-6" d="m262.35,849.59c-8.12.13-16.9-3.08-21.05-10.41,1.17,1.64,2.44,3.24,4.07,4.42,4.71,3.67,11.02,4.96,16.87,4.57,0,0,.11,1.42.11,1.42h0Z"/>
    </g>
  </g>
</svg>