<?xml version="1.0" encoding="UTF-8"?>
<svg id="Layer_2" data-name="Layer 2" xmlns="http://www.w3.org/2000/svg" xmlns:xlink="http://www.w3.org/1999/xlink" viewBox="0 0 349.78 325.03">
  <defs>
    <style>
      .cls-1 {
        stroke-width: 1.56px;
      }

      .cls-1, .cls-2 {
        stroke: #2d2624;
      }

      .cls-1, .cls-2, .cls-3, .cls-4, .cls-5 {
        stroke-miterlimit: 10;
      }

      .cls-1, .cls-2, .cls-6 {
        fill: #729b39;
      }

      .cls-7 {
        fill: #112c32;
      }

      .cls-8 {
        fill: #e9c700;
      }

      .cls-2 {
        stroke-width: .89px;
      }

      .cls-3 {
        fill: #b44830;
        stroke: #232624;
        stroke-width: .25px;
      }

      .cls-9 {
        fill: url(#linear-gradient);
      }

      .cls-4 {
        stroke: #f16729;
        stroke-width: 2.76px;
      }

      .cls-4, .cls-5 {
        fill: none;
      }

      .cls-10 {
        fill: #e4eee8;
      }

      .cls-5 {
        isolation: isolate;
        opacity: .32;
        stroke: #963711;
      }

      .cls-11 {
        fill: #cf9e00;
      }

      .cls-12 {
        fill: #f7957c;
      }

      .cls-13 {
        fill: #2d2624;
      }

      .cls-14 {
        fill: #e05576;
      }

      .cls-15 {
        fill: #f16729;
      }
    </style>
    <linearGradient id="linear-gradient" x1="218.99" y1="-24.03" x2="218.99" y2="2.86" gradientTransform="translate(0 118.37) scale(1 -1)" gradientUnits="userSpaceOnUse">
      <stop offset="0" stop-color="#ed1c24"/>
      <stop offset=".69" stop-color="#a0000c"/>
      <stop offset="1" stop-color="#000"/>
    </linearGradient>
  </defs>
  <g>
    <path class="cls-2" d="M180.32,16.15s-17.73-16.81-27.33,3.9c0,0,8.16,9.18,27.33-3.9Z"/>
    <g>
      <path class="cls-6" d="M179.79,16.33s-8-4.29-14.5.29"/>
      <path class="cls-13" d="M179.58,16.73c-4.35-2.3-10.02-2.94-14.29-.1,1.04-.71,2.15-1.38,3.39-1.73,3.72-1.17,7.8-.53,11.32,1.04l-.42.79h0Z"/>
    </g>
  </g>
  <g>
    <path class="cls-1" d="M183.56,15.95s32.64-27.52,47.27,9.59c0,0-15.16,15.19-47.27-9.59Z"/>
    <g>
      <path class="cls-6" d="M184.45,16.33s14.39-6.67,25.25,1.99"/>
      <path class="cls-13" d="M184.12,15.62c7.56-2.9,16.58-3.26,23.58,1.21.44.32,1.55,1.16,2,1.49-.48-.31-1.62-1.07-2.08-1.37-6.98-3.93-15.76-3.12-22.85.08l-.66-1.42h.01Z"/>
    </g>
  </g>
  <g>
    <g>
      <path class="cls-15" d="M276.14,195.15c-.58,0-1.15-.02-1.7-.07l-3.49-.31-2.69-61.4,1.18-1.23c1.31-1.37,32.27-33.52,56.38-33.52,7.13,0,13.02,2.69,17.52,7.99,4.54,5.35,8.34,15.22.65,31.84-12.51,27.02-48.01,56.69-67.84,56.69h-.01Z"/>
      <path class="cls-4" d="M276.14,195.15c-.58,0-1.15-.02-1.7-.07l-3.49-.31-2.69-61.4,1.18-1.23c1.31-1.37,32.27-33.52,56.38-33.52,7.13,0,13.02,2.69,17.52,7.99,4.54,5.35,8.34,15.22.65,31.84-12.51,27.02-48.01,56.69-67.84,56.69h-.01Z"/>
    </g>
    <g>
      <path class="cls-15" d="M291.53,178.48c-.44,0-.86-.02-1.28-.06l-3.49-.31-1.92-43.85,1.18-1.23c.91-.96,22.57-23.44,39.68-23.44,5.21,0,9.71,2.05,13,5.94,3.36,3.96,6.2,11.2.63,23.23-8.76,18.93-33.77,39.71-47.79,39.71h-.01Z"/>
      <path class="cls-4" d="M291.53,178.48c-.44,0-.86-.02-1.28-.06l-3.49-.31-1.92-43.85,1.18-1.23c.91-.96,22.57-23.44,39.68-23.44,5.21,0,9.71,2.05,13,5.94,3.36,3.96,6.2,11.2.63,23.23-8.76,18.93-33.77,39.71-47.79,39.71h-.01Z"/>
    </g>
    <g>
      <g>
        <path class="cls-15" d="M162.25,323.64c-3.08,0-6.19-.12-9.24-.35-33.84-2.59-67-17.11-90.99-39.82-19.05-18.04-41.01-49.37-37.42-96.17,3.09-40.35,18.52-80.98,42.33-111.47,19.51-24.99,53.75-54.78,106.06-54.78,2.92,0,5.9.1,8.86.29,31.39,2.02,57.37,14.62,77.2,37.45,27.87,32.09,41.97,84.48,37.71,140.14-2.71,35.31-18.96,67.57-45.76,90.83-24.82,21.54-57.17,33.89-88.76,33.89h0Z"/>
        <path class="cls-4" d="M162.25,323.64c-3.08,0-6.19-.12-9.24-.35-33.84-2.59-67-17.11-90.99-39.82-19.05-18.04-41.01-49.37-37.42-96.17,3.09-40.35,18.52-80.98,42.33-111.47,19.51-24.99,53.75-54.78,106.06-54.78,2.92,0,5.9.1,8.86.29,31.39,2.02,57.37,14.62,77.2,37.45,27.87,32.09,41.97,84.48,37.71,140.14-2.71,35.31-18.96,67.57-45.76,90.83-24.82,21.54-57.17,33.89-88.76,33.89h0Z"/>
      </g>
      <g>
        <path class="cls-15" d="M205.74,268.04c-17.63,0-34.46-5.3-48.67-15.34-26.66-18.83-42.51-45.63-45.84-77.49-4.7-45,3.81-83.25,23.35-104.94,10.27-11.39,23.13-17.42,37.19-17.42,4.67,0,9.5.67,14.35,1.98,3.13.5,23.1,4.6,29.87,28.64h2.11c.29-5.24,1.65-14.16,7.17-20.02,3.61-3.84,8.33-5.79,14.03-5.79,4.84,0,10.43,1.46,16.62,4.35,12.53,5.85,24.9,24.44,33.08,49.74,8.57,26.48,11.01,55.7,6.71,80.17-5.72,32.49-28.85,59.65-60.35,70.88l-.63.22c-9.35,3.32-19.1,5-28.98,5v.02Z"/>
        <path class="cls-4" d="M205.74,268.04c-17.63,0-34.46-5.3-48.67-15.34-26.66-18.83-42.51-45.63-45.84-77.49-4.7-45,3.81-83.25,23.35-104.94,10.27-11.39,23.13-17.42,37.19-17.42,4.67,0,9.5.67,14.35,1.98,3.13.5,23.1,4.6,29.87,28.64h2.11c.29-5.24,1.65-14.16,7.17-20.02,3.61-3.84,8.33-5.79,14.03-5.79,4.84,0,10.43,1.46,16.62,4.35,12.53,5.85,24.9,24.44,33.08,49.74,8.57,26.48,11.01,55.7,6.71,80.17-5.72,32.49-28.85,59.65-60.35,70.88l-.63.22c-9.35,3.32-19.1,5-28.98,5v.02Z"/>
      </g>
      <g>
        <path class="cls-15" d="M219.14,115.23c-7.05,0-16.33-2.07-16.73-2.16l-7.7-1.73,5.95-5.19c5.58-4.87,11.73-7.55,17.32-7.55,6.86,0,12.04,4.21,12.04,9.8,0,2.72-1.74,4.95-4.66,5.99-1.59.56-3.62.84-6.21.84h-.01Z"/>
        <path class="cls-4" d="M219.14,115.23c-7.05,0-16.33-2.07-16.73-2.16l-7.7-1.73,5.95-5.19c5.58-4.87,11.73-7.55,17.32-7.55,6.86,0,12.04,4.21,12.04,9.8,0,2.72-1.74,4.95-4.66,5.99-1.59.56-3.62.84-6.21.84h-.01Z"/>
      </g>
      <g>
        <path class="cls-15" d="M215.03,141.5c-.37,0-.75-.02-1.12-.07h-.22c-2.57,0-4.88-1.05-6.68-3.02-6.23-6.83-4.95-24.4-4.63-27.85l.41-4.39,12.74,2.44,12.92-1.18-.03,4.41c-.04,6.96-1.13,29.66-13.39,29.66h0Z"/>
        <path class="cls-4" d="M215.03,141.5c-.37,0-.75-.02-1.12-.07h-.22c-2.57,0-4.88-1.05-6.68-3.02-6.23-6.83-4.95-24.4-4.63-27.85l.41-4.39,12.74,2.44,12.92-1.18-.03,4.41c-.04,6.96-1.13,29.66-13.39,29.66h0Z"/>
      </g>
      <g>
        <g>
          <ellipse class="cls-15" cx="250.97" cy="96.67" rx="16.06" ry="20.08"/>
          <ellipse class="cls-4" cx="250.97" cy="96.67" rx="16.06" ry="20.08"/>
        </g>
        <g>
          <ellipse class="cls-15" cx="183.18" cy="90.73" rx="17.21" ry="19.51"/>
          <ellipse class="cls-4" cx="183.18" cy="90.73" rx="17.21" ry="19.51"/>
        </g>
        <g>
          <ellipse class="cls-15" cx="246.56" cy="89.96" rx="6.49" ry="8.21"/>
          <ellipse class="cls-4" cx="246.56" cy="89.96" rx="6.49" ry="8.21"/>
        </g>
        <g>
          <path class="cls-15" d="M179.64,94.73c-3.97,0-6.97-3.94-6.97-9.17s3-9.17,6.97-9.17,6.97,3.94,6.97,9.17-3,9.17-6.97,9.17Z"/>
          <path class="cls-4" d="M179.64,94.73c-3.97,0-6.97-3.94-6.97-9.17s3-9.17,6.97-9.17,6.97,3.94,6.97,9.17-3,9.17-6.97,9.17Z"/>
        </g>
        <g>
          <path class="cls-15" d="M180.5,100.47c-2.95,0-5.34-2.48-5.34-5.53s2.4-5.53,5.34-5.53,5.34,2.48,5.34,5.53-2.4,5.53-5.34,5.53Z"/>
          <path class="cls-4" d="M180.5,100.47c-2.95,0-5.34-2.48-5.34-5.53s2.4-5.53,5.34-5.53,5.34,2.48,5.34,5.53-2.4,5.53-5.34,5.53Z"/>
        </g>
        <g>
          <path class="cls-15" d="M245.51,105.07c-3.31,0-6.01-2.83-6.01-6.3s2.7-6.3,6.01-6.3,6.01,2.83,6.01,6.3-2.7,6.3-6.01,6.3Z"/>
          <path class="cls-4" d="M245.51,105.07c-3.31,0-6.01-2.83-6.01-6.3s2.7-6.3,6.01-6.3,6.01,2.83,6.01,6.3-2.7,6.3-6.01,6.3Z"/>
        </g>
      </g>
      <g>
        <path class="cls-15" d="M262.65,136.28c-6.64,0-12.04-4.89-12.04-10.89s5.4-10.89,12.04-10.89,12.04,4.89,12.04,10.89-5.4,10.89-12.04,10.89Z"/>
        <path class="cls-4" d="M262.65,136.28c-6.64,0-12.04-4.89-12.04-10.89s5.4-10.89,12.04-10.89,12.04,4.89,12.04,10.89-5.4,10.89-12.04,10.89Z"/>
      </g>
      <g>
        <path class="cls-15" d="M164.22,129.39c-7.7,0-13.96-5.4-13.96-12.04s6.26-12.04,13.96-12.04,13.96,5.4,13.96,12.04-6.26,12.04-13.96,12.04Z"/>
        <path class="cls-4" d="M164.22,129.39c-7.7,0-13.96-5.4-13.96-12.04s6.26-12.04,13.96-12.04,13.96,5.4,13.96,12.04-6.26,12.04-13.96,12.04Z"/>
      </g>
    </g>
    <g>
      <path class="cls-15" d="M140.12,289.45c-2.15,0-4.17-.45-6.01-1.35-5.83-2.83-9.06-9.58-9.1-19-.04-8.41,2.48-18.26,7.07-27.72,8.32-17.12,21.17-28.63,31.97-28.63,2.15,0,4.17.45,6.01,1.35,11.4,5.54,12.27,25.63,2.03,46.72-8.32,17.12-21.17,28.63-31.97,28.63Z"/>
      <path class="cls-4" d="M140.12,289.45c-2.15,0-4.17-.45-6.01-1.35-5.83-2.83-9.06-9.58-9.1-19-.04-8.41,2.48-18.26,7.07-27.72,8.32-17.12,21.17-28.63,31.97-28.63,2.15,0,4.17.45,6.01,1.35,11.4,5.54,12.27,25.63,2.03,46.72-8.32,17.12-21.17,28.63-31.97,28.63Z"/>
    </g>
    <g>
      <path class="cls-15" d="M243.79,291.01c-4.89,0-8.87-1.59-11.5-4.6-3.96-4.51-4.3-11.4-.97-19.39,2.94-7.06,8.51-14.42,15.69-20.71,9.95-8.72,21.23-13.93,30.18-13.93,4.89,0,8.87,1.59,11.51,4.6,7.69,8.77,1.36,26.01-14.72,40.1-9.96,8.72-21.24,13.93-30.18,13.93h-.01Z"/>
      <path class="cls-4" d="M243.79,291.01c-4.89,0-8.87-1.59-11.5-4.6-3.96-4.51-4.3-11.4-.97-19.39,2.94-7.06,8.51-14.42,15.69-20.71,9.95-8.72,21.23-13.93,30.18-13.93,4.89,0,8.87,1.59,11.51,4.6,7.69,8.77,1.36,26.01-14.72,40.1-9.96,8.72-21.24,13.93-30.18,13.93h-.01Z"/>
    </g>
    <g>
      <path class="cls-15" d="M37.89,185.02C19.38,177.62,1.63,134.31,1.38,106.15c-.18-20.47,8.05-28.25,15-31.17,2.89-1.22,5.84-1.83,8.78-1.83,12.02,0,23.41,9.99,33.85,29.7,7.41,13.97,11.6,27.71,11.77,28.29l.49,1.63-30.13,53.56-3.25-1.3h0Z"/>
      <path class="cls-4" d="M37.89,185.02C19.38,177.62,1.63,134.31,1.38,106.15c-.18-20.47,8.05-28.25,15-31.17,2.89-1.22,5.84-1.83,8.78-1.83,12.02,0,23.41,9.99,33.85,29.7,7.41,13.97,11.6,27.71,11.77,28.29l.49,1.63-30.13,53.56-3.25-1.3h0Z"/>
    </g>
    <g>
      <path class="cls-15" d="M31.31,179.44c-14.8-5.4-28.96-36.82-29.13-57.24-.1-11.87,4.29-20.12,12.35-23.22,2.33-.89,4.7-1.35,7.07-1.35,21.84,0,34.96,37.64,36.38,41.94l.59,1.77-24.19,39.21-3.06-1.12h-.01Z"/>
      <path class="cls-4" d="M31.31,179.44c-14.8-5.4-28.96-36.82-29.13-57.24-.1-11.87,4.29-20.12,12.35-23.22,2.33-.89,4.7-1.35,7.07-1.35,21.84,0,34.96,37.64,36.38,41.94l.59,1.77-24.19,39.21-3.06-1.12h-.01Z"/>
    </g>
  </g>
  <path class="cls-12" d="M274.63,132.6s47.52-49.78,67.95-25.7c20.43,24.08-40.83,84.07-65.49,81.89l-2.47-56.19h0Z"/>
  <path class="cls-10" d="M291.2,133.49s32.68-34.24,46.73-17.68-28.08,57.82-45.04,56.32l-1.7-38.65h.01Z"/>
  <path class="cls-12" d="M295.07,196.33c-5.91,77.19-75.55,125.57-139.45,120.68-63.9-4.89-130.64-54.51-124.73-131.7S91.02,17.07,183.9,23.03c87.48,5.62,117.09,96.11,111.17,173.3h0Z"/>
  <path class="cls-10" d="M235.68,256.97c-24.81,8.81-52.5,5.35-74.01-9.84-19.94-14.08-40.28-37.35-44.17-74.64-8.04-76.98,29.16-124.18,70.09-116.04,0,0,21.83,2.3,27.57,28.72h9.19s-2.3-37.91,32.17-21.83c23.36,10.9,46.71,73.5,37.54,125.59-5.52,31.35-27.78,57.12-57.76,67.81-.21.07-.41.15-.62.22h0Z"/>
  <g>
    <path class="cls-8" d="M205.2,109.84s27.24,6.12,27.24-.92-12.86-11.63-27.24.92Z"/>
    <path class="cls-8" d="M230.07,111.02l-10.9,1-10.75-2.06s-3.03,32.68,9.29,31.76c12.17,2.13,12.36-30.69,12.36-30.69h0Z"/>
    <path class="cls-7" d="M229.1,112.28l-9.99.91-9.86-1.89s-2.78,29.96,8.52,29.11c11.16,1.95,11.33-28.14,11.33-28.14h0Z"/>
    <path class="cls-9" d="M228.32,113.3l-9.26.85-9.13-1.75s-2.57,27.74,7.89,26.96c10.33,1.8,10.5-26.05,10.5-26.05h0Z"/>
  </g>
  <g>
    <ellipse class="cls-7" cx="253.26" cy="94.37" rx="12.06" ry="16.09"/>
    <ellipse class="cls-7" cx="185.48" cy="88.43" rx="13.21" ry="15.51"/>
    <ellipse class="cls-10" cx="248.86" cy="87.67" rx="2.49" ry="4.21"/>
    <ellipse class="cls-10" cx="181.93" cy="83.26" rx="2.97" ry="5.17"/>
    <ellipse class="cls-10" cx="182.8" cy="92.64" rx="1.34" ry="1.53"/>
    <ellipse class="cls-10" cx="247.81" cy="96.47" rx="2.01" ry="2.3"/>
  </g>
  <ellipse class="cls-14" cx="264.95" cy="123.09" rx="8.04" ry="6.89"/>
  <ellipse class="cls-14" cx="166.52" cy="115.05" rx="9.96" ry="8.04"/>
  <ellipse class="cls-11" cx="154.39" cy="248.83" rx="37.14" ry="18.24" transform="translate(-136.9 278.92) rotate(-64.08)"/>
  <ellipse class="cls-11" cx="262.79" cy="259.39" rx="33.5" ry="16.46" transform="translate(-105.81 237.51) rotate(-41.23)"/>
  <path class="cls-12" d="M69.24,129.98s-19.91-65.87-49.02-53.62c-29.11,12.26-1.53,93.45,21.45,102.64l27.57-49.02h0Z"/>
  <path class="cls-10" d="M56.48,138.54s-15.52-46.83-38.21-38.11c-22.69,8.71-1.19,66.43,16.72,72.96l21.5-34.85h-.01Z"/>
  <path class="cls-3" d="M175.89,20.62s3.3-18.57,14.41-20.49c0,0,4.45-.1,7.09,3.35,0,0-11.59,2.35-13.45,18.29,0,0-4.5,1.34-8.04-1.15h0Z"/>
  <path class="cls-5" d="M173.59,20.62s55.53,6.13,45.57,64.34"/>
</svg>