<?xml version="1.0" encoding="UTF-8"?>
<svg id="Layer_2" data-name="Layer 2" xmlns="http://www.w3.org/2000/svg" viewBox="0 0 911.15 913.19">
  <defs>
    <style>
      .cls-1 {
        stroke-width: .86px;
      }

      .cls-1, .cls-2, .cls-3 {
        fill: #729b39;
      }

      .cls-1, .cls-4, .cls-5, .cls-3 {
        stroke-miterlimit: 10;
      }

      .cls-1, .cls-3 {
        stroke: #2d2624;
      }

      .cls-6 {
        fill: #2d2624;
      }

      .cls-4 {
        fill: none;
        stroke-width: 1.59px;
      }

      .cls-4, .cls-5 {
        stroke: #963711;
      }

      .cls-5 {
        fill: #f16729;
        stroke-width: 1.67px;
      }

      .cls-3 {
        stroke-width: .84px;
      }
    </style>
  </defs>
  <circle class="cls-5" cx="238.85" cy="771.8" r="27.69"/>
  <path class="cls-4" d="m213.64,766.33s23.22,35.71,53.05,10.64"/>
  <g>
    <path class="cls-3" d="m213.72,765.1s-22.82,1.46-14.73,21.23c0,0,11.49.25,14.73-21.23Z"/>
    <g>
      <path class="cls-2" d="m213.52,765.58s-8.04,2.76-9.03,10.13"/>
      <path class="cls-6" d="m213.65,765.97c-4.35,1.52-8.4,5-9.16,9.73.18-1.17.42-2.35.97-3.43,1.57-3.3,4.6-5.69,7.92-7.1,0,0,.27.79.27.79h0Z"/>
    </g>
  </g>
  <g>
    <path class="cls-1" d="m213.44,765.82s-15.75-17.33,4.29-26.1c0,0,8.63,8-4.29,26.1Z"/>
    <g>
      <path class="cls-2" d="m213.63,765.32s-3.95-7.75.58-13.88"/>
      <path class="cls-6" d="m213.25,765.52c-1.93-4.48-2.16-10.09.96-14.07-.64,1.03-1.24,2.1-1.52,3.27-.96,3.46-.23,7.25,1.33,10.41,0,0-.76.39-.76.39h0Z"/>
    </g>
  </g>
</svg>