<?xml version="1.0" encoding="UTF-8"?>
<svg id="Layer_2" data-name="Layer 2" xmlns="http://www.w3.org/2000/svg" xmlns:xlink="http://www.w3.org/1999/xlink" viewBox="0 0 911.15 913.19">
  <defs>
    <style>
      .cls-1 {
        fill: #e9c700;
      }

      .cls-2 {
        fill: #f16729;
      }

      .cls-3 {
        fill: #2d2624;
      }

      .cls-4 {
        fill: #cf9e00;
      }

      .cls-5 {
        stroke: #f16729;
        stroke-width: 2.76px;
      }

      .cls-5, .cls-6, .cls-7, .cls-8, .cls-9 {
        stroke-miterlimit: 10;
      }

      .cls-5, .cls-8 {
        fill: none;
      }

      .cls-10 {
        fill: #e4eee8;
      }

      .cls-11, .cls-6, .cls-7 {
        fill: #729b39;
      }

      .cls-12 {
        fill: #e05576;
      }

      .cls-6 {
        stroke-width: 1.56px;
      }

      .cls-6, .cls-7 {
        stroke: #2d2624;
      }

      .cls-7 {
        stroke-width: .89px;
      }

      .cls-8 {
        opacity: .32;
        stroke: #963711;
      }

      .cls-13 {
        fill: url(#linear-gradient);
      }

      .cls-9 {
        fill: #b44830;
        stroke: #232624;
        stroke-width: .25px;
      }

      .cls-14 {
        fill: #112c32;
      }

      .cls-15 {
        fill: #f7957c;
      }
    </style>
    <linearGradient id="linear-gradient" x1="478.07" y1="540.22" x2="478.07" y2="513.33" gradientUnits="userSpaceOnUse">
      <stop offset="0" stop-color="#ed1c24"/>
      <stop offset=".69" stop-color="#a0000c"/>
      <stop offset="1" stop-color="#000"/>
    </linearGradient>
  </defs>
  <g>
    <path class="cls-7" d="m439.4,413.96s-17.73-16.81-27.33,3.9c0,0,8.16,9.18,27.33-3.9Z"/>
    <g>
      <path class="cls-11" d="m438.87,414.14s-8-4.29-14.5.29"/>
      <path class="cls-3" d="m438.66,414.54c-4.35-2.3-10.02-2.94-14.29-.1,1.04-.71,2.15-1.38,3.39-1.73,3.72-1.17,7.8-.53,11.32,1.04,0,0-.42.79-.42.79h0Z"/>
    </g>
  </g>
  <g>
    <path class="cls-6" d="m442.64,413.76s32.64-27.52,47.27,9.59c0,0-15.16,15.19-47.27-9.59Z"/>
    <g>
      <path class="cls-11" d="m443.53,414.14s14.39-6.67,25.25,1.99"/>
      <path class="cls-3" d="m443.2,413.43c7.56-2.9,16.58-3.26,23.58,1.21.44.32,1.55,1.16,2,1.49-.48-.31-1.62-1.07-2.08-1.37-6.98-3.93-15.76-3.12-22.85.08,0,0-.66-1.42-.66-1.42h0Z"/>
    </g>
  </g>
  <g>
    <g>
      <path class="cls-2" d="m535.22,592.96c-.58,0-1.15-.02-1.7-.07l-3.49-.31-2.69-61.4,1.18-1.23c1.31-1.37,32.27-33.52,56.38-33.52,7.13,0,13.02,2.69,17.52,7.99,4.54,5.35,8.34,15.22.65,31.84-12.51,27.02-48.01,56.69-67.84,56.69Z"/>
      <path class="cls-5" d="m535.22,592.96c-.58,0-1.15-.02-1.7-.07l-3.49-.31-2.69-61.4,1.18-1.23c1.31-1.37,32.27-33.52,56.38-33.52,7.13,0,13.02,2.69,17.52,7.99,4.54,5.35,8.34,15.22.65,31.84-12.51,27.02-48.01,56.69-67.84,56.69Z"/>
    </g>
    <g>
      <path class="cls-2" d="m550.61,576.29c-.44,0-.86-.02-1.28-.06l-3.49-.31-1.92-43.85,1.18-1.23c.91-.96,22.57-23.44,39.68-23.44,5.21,0,9.71,2.05,13,5.94,3.36,3.96,6.2,11.2.63,23.23-8.76,18.93-33.77,39.71-47.79,39.71Z"/>
      <path class="cls-5" d="m550.61,576.29c-.44,0-.86-.02-1.28-.06l-3.49-.31-1.92-43.85,1.18-1.23c.91-.96,22.57-23.44,39.68-23.44,5.21,0,9.71,2.05,13,5.94,3.36,3.96,6.2,11.2.63,23.23-8.76,18.93-33.77,39.71-47.79,39.71Z"/>
    </g>
    <g>
      <g>
        <path class="cls-2" d="m421.33,721.45c-3.08,0-6.19-.12-9.24-.35-33.84-2.59-67-17.11-90.99-39.82-19.05-18.04-41.01-49.37-37.42-96.17,3.09-40.35,18.52-80.98,42.33-111.47,19.51-24.99,53.75-54.78,106.06-54.78,2.92,0,5.9.1,8.86.29,31.39,2.02,57.37,14.62,77.2,37.45,27.87,32.09,41.97,84.48,37.71,140.14-2.71,35.31-18.96,67.57-45.76,90.83-24.82,21.54-57.17,33.89-88.76,33.89Z"/>
        <path class="cls-5" d="m421.33,721.45c-3.08,0-6.19-.12-9.24-.35-33.84-2.59-67-17.11-90.99-39.82-19.05-18.04-41.01-49.37-37.42-96.17,3.09-40.35,18.52-80.98,42.33-111.47,19.51-24.99,53.75-54.78,106.06-54.78,2.92,0,5.9.1,8.86.29,31.39,2.02,57.37,14.62,77.2,37.45,27.87,32.09,41.97,84.48,37.71,140.14-2.71,35.31-18.96,67.57-45.76,90.83-24.82,21.54-57.17,33.89-88.76,33.89Z"/>
      </g>
      <g>
        <path class="cls-2" d="m464.82,665.85c-17.63,0-34.46-5.3-48.67-15.34-26.66-18.83-42.51-45.63-45.84-77.49-4.7-45,3.81-83.25,23.35-104.94,10.27-11.39,23.13-17.42,37.19-17.42,4.67,0,9.5.67,14.35,1.98,3.13.5,23.1,4.6,29.87,28.64h2.11c.29-5.24,1.65-14.16,7.17-20.02,3.61-3.84,8.33-5.79,14.03-5.79,4.84,0,10.43,1.46,16.62,4.35,12.53,5.85,24.9,24.44,33.08,49.74,8.57,26.48,11.01,55.7,6.71,80.17-5.72,32.49-28.85,59.65-60.35,70.88l-.63.22c-9.35,3.32-19.1,5-28.98,5Z"/>
        <path class="cls-5" d="m464.82,665.85c-17.63,0-34.46-5.3-48.67-15.34-26.66-18.83-42.51-45.63-45.84-77.49-4.7-45,3.81-83.25,23.35-104.94,10.27-11.39,23.13-17.42,37.19-17.42,4.67,0,9.5.67,14.35,1.98,3.13.5,23.1,4.6,29.87,28.64h2.11c.29-5.24,1.65-14.16,7.17-20.02,3.61-3.84,8.33-5.79,14.03-5.79,4.84,0,10.43,1.46,16.62,4.35,12.53,5.85,24.9,24.44,33.08,49.74,8.57,26.48,11.01,55.7,6.71,80.17-5.72,32.49-28.85,59.65-60.35,70.88l-.63.22c-9.35,3.32-19.1,5-28.98,5Z"/>
      </g>
      <g>
        <path class="cls-2" d="m478.22,513.04c-7.05,0-16.33-2.07-16.73-2.16l-7.7-1.73,5.95-5.19c5.58-4.87,11.73-7.55,17.32-7.55,6.86,0,12.04,4.21,12.04,9.8,0,2.72-1.74,4.95-4.66,5.99-1.59.56-3.62.84-6.21.84h0Z"/>
        <path class="cls-5" d="m478.22,513.04c-7.05,0-16.33-2.07-16.73-2.16l-7.7-1.73,5.95-5.19c5.58-4.87,11.73-7.55,17.32-7.55,6.86,0,12.04,4.21,12.04,9.8,0,2.72-1.74,4.95-4.66,5.99-1.59.56-3.62.84-6.21.84h0Z"/>
      </g>
      <g>
        <path class="cls-2" d="m474.11,539.31c-.37,0-.75-.02-1.12-.07-.07,0-.15,0-.22,0-2.57,0-4.88-1.05-6.68-3.02-6.23-6.83-4.95-24.4-4.63-27.85l.41-4.39,12.74,2.44,12.92-1.18-.03,4.41c-.04,6.96-1.13,29.66-13.39,29.66,0,0,0,0,0,0Z"/>
        <path class="cls-5" d="m474.11,539.31c-.37,0-.75-.02-1.12-.07-.07,0-.15,0-.22,0-2.57,0-4.88-1.05-6.68-3.02-6.23-6.83-4.95-24.4-4.63-27.85l.41-4.39,12.74,2.44,12.92-1.18-.03,4.41c-.04,6.96-1.13,29.66-13.39,29.66,0,0,0,0,0,0Z"/>
      </g>
      <g>
        <g>
          <ellipse class="cls-2" cx="510.05" cy="494.48" rx="16.06" ry="20.08"/>
          <ellipse class="cls-5" cx="510.05" cy="494.48" rx="16.06" ry="20.08"/>
        </g>
        <g>
          <ellipse class="cls-2" cx="442.26" cy="488.54" rx="17.21" ry="19.51"/>
          <ellipse class="cls-5" cx="442.26" cy="488.54" rx="17.21" ry="19.51"/>
        </g>
        <g>
          <ellipse class="cls-2" cx="505.64" cy="487.77" rx="6.49" ry="8.21"/>
          <ellipse class="cls-5" cx="505.64" cy="487.77" rx="6.49" ry="8.21"/>
        </g>
        <g>
          <path class="cls-2" d="m438.72,492.54c-3.97,0-6.97-3.94-6.97-9.17s3-9.17,6.97-9.17,6.97,3.94,6.97,9.17-3,9.17-6.97,9.17Z"/>
          <path class="cls-5" d="m438.72,492.54c-3.97,0-6.97-3.94-6.97-9.17s3-9.17,6.97-9.17,6.97,3.94,6.97,9.17-3,9.17-6.97,9.17Z"/>
        </g>
        <g>
          <path class="cls-2" d="m439.58,498.28c-2.95,0-5.34-2.48-5.34-5.53s2.4-5.53,5.34-5.53,5.34,2.48,5.34,5.53-2.4,5.53-5.34,5.53Z"/>
          <path class="cls-5" d="m439.58,498.28c-2.95,0-5.34-2.48-5.34-5.53s2.4-5.53,5.34-5.53,5.34,2.48,5.34,5.53-2.4,5.53-5.34,5.53Z"/>
        </g>
        <g>
          <path class="cls-2" d="m504.59,502.88c-3.31,0-6.01-2.83-6.01-6.3s2.7-6.3,6.01-6.3,6.01,2.83,6.01,6.3-2.7,6.3-6.01,6.3Z"/>
          <path class="cls-5" d="m504.59,502.88c-3.31,0-6.01-2.83-6.01-6.3s2.7-6.3,6.01-6.3,6.01,2.83,6.01,6.3-2.7,6.3-6.01,6.3Z"/>
        </g>
      </g>
      <g>
        <path class="cls-2" d="m521.73,534.09c-6.64,0-12.04-4.89-12.04-10.89s5.4-10.89,12.04-10.89,12.04,4.89,12.04,10.89-5.4,10.89-12.04,10.89Z"/>
        <path class="cls-5" d="m521.73,534.09c-6.64,0-12.04-4.89-12.04-10.89s5.4-10.89,12.04-10.89,12.04,4.89,12.04,10.89-5.4,10.89-12.04,10.89Z"/>
      </g>
      <g>
        <path class="cls-2" d="m423.3,527.2c-7.7,0-13.96-5.4-13.96-12.04s6.26-12.04,13.96-12.04,13.96,5.4,13.96,12.04-6.26,12.04-13.96,12.04Z"/>
        <path class="cls-5" d="m423.3,527.2c-7.7,0-13.96-5.4-13.96-12.04s6.26-12.04,13.96-12.04,13.96,5.4,13.96,12.04-6.26,12.04-13.96,12.04Z"/>
      </g>
    </g>
    <g>
      <path class="cls-2" d="m399.2,687.26c-2.15,0-4.17-.45-6.01-1.35-5.83-2.83-9.06-9.58-9.1-19-.04-8.41,2.48-18.26,7.07-27.72,8.32-17.12,21.17-28.63,31.97-28.63,2.15,0,4.17.45,6.01,1.35,11.4,5.54,12.27,25.63,2.03,46.72-8.32,17.12-21.17,28.63-31.97,28.63Z"/>
      <path class="cls-5" d="m399.2,687.26c-2.15,0-4.17-.45-6.01-1.35-5.83-2.83-9.06-9.58-9.1-19-.04-8.41,2.48-18.26,7.07-27.72,8.32-17.12,21.17-28.63,31.97-28.63,2.15,0,4.17.45,6.01,1.35,11.4,5.54,12.27,25.63,2.03,46.72-8.32,17.12-21.17,28.63-31.97,28.63Z"/>
    </g>
    <g>
      <path class="cls-2" d="m502.87,688.82c-4.89,0-8.87-1.59-11.5-4.6-3.96-4.51-4.3-11.4-.97-19.39,2.94-7.06,8.51-14.42,15.69-20.71,9.95-8.72,21.23-13.93,30.18-13.93,4.89,0,8.87,1.59,11.51,4.6,7.69,8.77,1.36,26.01-14.72,40.1-9.96,8.72-21.24,13.93-30.18,13.93Z"/>
      <path class="cls-5" d="m502.87,688.82c-4.89,0-8.87-1.59-11.5-4.6-3.96-4.51-4.3-11.4-.97-19.39,2.94-7.06,8.51-14.42,15.69-20.71,9.95-8.72,21.23-13.93,30.18-13.93,4.89,0,8.87,1.59,11.51,4.6,7.69,8.77,1.36,26.01-14.72,40.1-9.96,8.72-21.24,13.93-30.18,13.93Z"/>
    </g>
    <g>
      <path class="cls-2" d="m296.97,582.83c-18.51-7.4-36.26-50.71-36.51-78.87-.18-20.47,8.05-28.25,15-31.17,2.89-1.22,5.84-1.83,8.78-1.83,12.02,0,23.41,9.99,33.85,29.7,7.41,13.97,11.6,27.71,11.77,28.29l.49,1.63-30.13,53.56-3.25-1.3Z"/>
      <path class="cls-5" d="m296.97,582.83c-18.51-7.4-36.26-50.71-36.51-78.87-.18-20.47,8.05-28.25,15-31.17,2.89-1.22,5.84-1.83,8.78-1.83,12.02,0,23.41,9.99,33.85,29.7,7.41,13.97,11.6,27.71,11.77,28.29l.49,1.63-30.13,53.56-3.25-1.3Z"/>
    </g>
    <g>
      <path class="cls-2" d="m290.39,577.25c-14.8-5.4-28.96-36.82-29.13-57.24-.1-11.87,4.29-20.12,12.35-23.22,2.33-.89,4.7-1.35,7.07-1.35,21.84,0,34.96,37.64,36.38,41.94l.59,1.77-24.19,39.21-3.06-1.12Z"/>
      <path class="cls-5" d="m290.39,577.25c-14.8-5.4-28.96-36.82-29.13-57.24-.1-11.87,4.29-20.12,12.35-23.22,2.33-.89,4.7-1.35,7.07-1.35,21.84,0,34.96,37.64,36.38,41.94l.59,1.77-24.19,39.21-3.06-1.12Z"/>
    </g>
  </g>
  <path class="cls-15" d="m533.71,530.41s47.52-49.78,67.95-25.7-40.83,84.07-65.49,81.89l-2.47-56.19Z"/>
  <path class="cls-10" d="m550.28,531.3s32.68-34.24,46.73-17.68c14.05,16.56-28.08,57.82-45.04,56.32l-1.7-38.65Z"/>
  <path class="cls-15" d="m554.15,594.14c-5.91,77.19-75.55,125.57-139.45,120.68-63.9-4.89-130.64-54.51-124.73-131.7,5.91-77.19,60.13-168.24,153.01-162.28,87.48,5.62,117.09,96.11,111.17,173.3Z"/>
  <path class="cls-10" d="m494.76,654.78c-24.81,8.81-52.5,5.35-74.01-9.84-19.94-14.08-40.28-37.35-44.17-74.64-8.04-76.98,29.16-124.18,70.09-116.04,0,0,21.83,2.3,27.57,28.72h9.19s-2.3-37.91,32.17-21.83c23.36,10.9,46.71,73.5,37.54,125.59-5.52,31.35-27.78,57.12-57.76,67.81-.21.07-.41.15-.62.22Z"/>
  <g>
    <path class="cls-1" d="m464.28,507.65s27.24,6.12,27.24-.92-12.86-11.63-27.24.92Z"/>
    <path class="cls-1" d="m489.15,508.83l-10.9,1-10.75-2.06s-3.03,32.68,9.29,31.76c12.17,2.13,12.36-30.69,12.36-30.69Z"/>
    <path class="cls-14" d="m488.18,510.09l-9.99.91-9.86-1.89s-2.78,29.96,8.52,29.11c11.16,1.95,11.33-28.14,11.33-28.14Z"/>
    <path class="cls-13" d="m487.4,511.11l-9.26.85-9.13-1.75s-2.57,27.74,7.89,26.96c10.33,1.8,10.5-26.05,10.5-26.05Z"/>
  </g>
  <g>
    <ellipse class="cls-14" cx="512.34" cy="492.18" rx="12.06" ry="16.09"/>
    <ellipse class="cls-14" cx="444.56" cy="486.24" rx="13.21" ry="15.51"/>
    <ellipse class="cls-10" cx="507.94" cy="485.48" rx="2.49" ry="4.21"/>
    <ellipse class="cls-10" cx="441.01" cy="481.07" rx="2.97" ry="5.17"/>
    <ellipse class="cls-10" cx="441.88" cy="490.45" rx="1.34" ry="1.53"/>
    <ellipse class="cls-10" cx="506.89" cy="494.28" rx="2.01" ry="2.3"/>
  </g>
  <ellipse class="cls-12" cx="524.03" cy="520.9" rx="8.04" ry="6.89"/>
  <ellipse class="cls-12" cx="425.6" cy="512.86" rx="9.96" ry="8.04"/>
  <ellipse class="cls-4" cx="413.46" cy="646.61" rx="37.14" ry="18.24" transform="translate(-348.83 735.87) rotate(-64.08)"/>
  <ellipse class="cls-4" cx="521.87" cy="657.2" rx="33.5" ry="16.46" transform="translate(-303.77 506.9) rotate(-41.23)"/>
  <path class="cls-15" d="m328.32,527.79s-19.91-65.87-49.02-53.62c-29.11,12.26-1.53,93.45,21.45,102.64l27.57-49.02Z"/>
  <path class="cls-10" d="m315.56,536.35s-15.52-46.83-38.21-38.11c-22.69,8.71-1.19,66.43,16.72,72.96l21.5-34.85Z"/>
  <path class="cls-9" d="m434.97,418.43s3.3-18.57,14.41-20.49c0,0,4.45-.1,7.09,3.35,0,0-11.59,2.35-13.45,18.29,0,0-4.5,1.34-8.04-1.15Z"/>
  <path class="cls-8" d="m432.67,418.43s55.53,6.13,45.57,64.34"/>
</svg>