<?xml version="1.0" encoding="UTF-8"?>
<svg id="Layer_1" data-name="Layer 1" xmlns="http://www.w3.org/2000/svg" xmlns:xlink="http://www.w3.org/1999/xlink" viewBox="0 0 256.25 291.33">
  <defs>
    <style>
      .cls-1, .cls-2, .cls-3 {
        fill: none;
      }

      .cls-4 {
        fill: #fcc1a8;
        stroke: #fcc1a8;
      }

      .cls-4, .cls-2, .cls-3, .cls-5, .cls-6, .cls-7, .cls-8, .cls-9, .cls-10, .cls-11, .cls-12, .cls-13, .cls-14, .cls-15, .cls-16, .cls-17, .cls-18 {
        stroke-linejoin: round;
      }

      .cls-4, .cls-5, .cls-6, .cls-7, .cls-8, .cls-9, .cls-11, .cls-12, .cls-13, .cls-14 {
        stroke-width: 0px;
      }

      .cls-2 {
        stroke: #000;
      }

      .cls-2, .cls-3, .cls-17, .cls-18 {
        stroke-width: 0px;
      }

      .cls-3 {
        stroke: rgba(0, 0, 0, 0);
      }

      .cls-5 {
        fill: #fcd6b6;
      }

      .cls-5, .cls-8, .cls-13 {
        stroke: #fed3b5;
      }

      .cls-6 {
        stroke: #ffbb98;
      }

      .cls-6, .cls-8 {
        fill: #ffbb98;
      }

      .cls-7 {
        fill: #252424;
        stroke: #252424;
      }

      .cls-9 {
        fill: #fbaf8b;
        stroke: #ffad8b;
      }

      .cls-19 {
        clip-path: url(#clippath-1);
      }

      .cls-20 {
        clip-path: url(#clippath-2);
      }

      .cls-10 {
        stroke-width: 6.5px;
      }

      .cls-10, .cls-21, .cls-17 {
        fill: #191919;
      }

      .cls-10, .cls-17 {
        stroke: #191919;
      }

      .cls-22 {
        fill: rgba(25, 25, 25, 0);
      }

      .cls-11, .cls-18 {
        fill: #fff;
        stroke: #fff;
      }

      .cls-12 {
        fill: #fdac84;
        stroke: #fdac84;
      }

      .cls-13 {
        fill: #fed3b5;
      }

      .cls-14 {
        fill: #feccb0;
        stroke: #feccb0;
      }

      .cls-23 {
        fill: rgba(37, 36, 36, 0);
      }

      .cls-15 {
        fill: #fec9a8;
        stroke: #ffc9a9;
        stroke-width: 0px;
      }

      .cls-16 {
        fill: #feb18c;
        stroke: #ffb18b;
        stroke-width: 0px;
      }
    </style>
    <clipPath id="clippath">
      <rect class="cls-1" x="29.78" y="42.84" width="199.16" height="204.01"/>
    </clipPath>
    <clipPath id="clippath-1">
      <rect class="cls-1" x="29.78" y="42.84" width="199.16" height="204.01"/>
    </clipPath>
    <clipPath id="clippath-2">
      <rect class="cls-1" x="29.78" y="42.84" width="199.16" height="204.01"/>
    </clipPath>
  </defs>
  <g class="cls-19">
    <g id="Layer-4">
      <path class="cls-22" d="M95.66,59.46l-.34-4.58.19-2.88.5-2.79,1.02-2.49s.87-3.62,4.61-3.86c1.22-.08,4.75-.22,4.75-.22l3.74.48,2.73.91,2.29.98,2.65,1.34,2.18,1.51,2.33,2.05,2.34,2.24,1.23,2,.55,1.01.91-1.21,1.61-2.3,1.65-1.98,2.26-2.42,2.78-1.87,3.2-1.52,2.76-.52,2.74-.44,3.99-.1,3.48-.11,3.73.84,2.87,1.49s4.08,2.85,3.81,6.4c-.27,3.55-.35,4.71-.35,4.71l-.41,2.74,2.88,1.25,3.17,1.31,4.1,1.98,2.93,1.57,3.31,1.89,2.71,1.75,3.1,2.21,2.95,2.1,3,2.48,3.12,2.85,2.99,2.72,2.39,2.62,2.6,2.97,2.66,3.23,2.33,3.1,2.73,4.15,2.34,3.76,2.38,4.37,2.52,5.38,1.39,3.44,1.45,3.78,1.31,3.97,1.05,4.06,1.23,5.66.82,4.79.41,3.91.3,3.1.15,3.7.02,2.25v2.18s-.04,2.69-.04,2.69l-.19,3.13-.22,2.46-.35,3.33-.32,2.09-.34,1.96-.36,1.89s-.18,1.15-.22,1.27l-.21.97-.32,1.36-.24,1.07-.39,1.51-.42,1.56-.34,1.15-.28.99-.3.91-.63,1.96-.35,1.01-.57,1.61-.41,1.03-.33.89-.64,1.54-.44,1.06-.4.9-.53,1.19-.47.99-.36.76-.58,1.17-.46.91-.47.93-.46.84-.67,1.27-.59,1.04-.46.81-.47.79-.63,1.03-.97,1.57-.8,1.23-1.03,1.52-.65.91-1.08,1.5-.6.82-.63.82-1.06,1.37-.65.81-1.12,1.34-.58.68-.79.91-.67.75-.95,1.04-1.02,1.08-1.16,1.18-.88.87-1.17,1.15-1.4,1.28-.84.77-.86.74-.47.42-.73.62-.54.44-.59.49-.56.47-.46.37-.71.54-.8.6-.35.28-.31.22-.49.36-.44.34-.52.38-.76.53-.5.36-.64.45-.5.33-.49.32-.68.45-.79.51-.7.44-1.02.62-.57.35-.76.45-.61.35-1.09.62-.7.39-.69.37-.69.36-.73.39-.77.39-.9.44-.6.3-.71.32-.54.27-.62.26-.62.29-.72.31-.93.41-.83.34-.92.37-.7.26-.69.26-.66.25-.62.22-.83.31-.62.2-1,.34-1.39.46-.72.22-.64.19-.62.17-.72.21-.79.22-.78.21-.62.16-.86.21-.91.21-.74.17-.78.17-1.22.26-.9.16-.8.16-.96.16-1.19.18-.9.14-.72.1-.82.1-.71.09-.68.07-.84.09-.89.09-.76.07-.87.08-.75.05-.76.04-.66.05-.8.03-.73.03-.96.03-.97.02h-.83s-.84,0-.84,0h-1.07s-.84-.01-.84-.01l-.7-.02-.91-.03-.9-.04-.89-.05-.92-.07-.68-.04-.67-.05-.54-.06-.71-.07-.63-.06-.56-.05-.63-.07-.74-.1-.8-.11-.78-.1-1.04-.15-1.08-.17-1-.17-.53-.09-.66-.12-.58-.11-.75-.15-.57-.12-.55-.12-.69-.15-.72-.17-.76-.19-.87-.22-.7-.16-.72-.2-.62-.17-.62-.18-.56-.16-.56-.17-.55-.17-.62-.2-.56-.16-.56-.2-.55-.17-.52-.19-.57-.19-.53-.18-.56-.2-.62-.24-.54-.2-.59-.23-.59-.23-.49-.19-.55-.23-.51-.2-.57-.25-.55-.23-.44-.18-.55-.25-.5-.22-.82-.38-.57-.26-.44-.22-.55-.27-.48-.23-.53-.27-.59-.29-.38-.2-.47-.24-.54-.29-.53-.29-.56-.3-.5-.28-.56-.31-.73-.43-.67-.4-.73-.43-.7-.43-.63-.41-.57-.34-.69-.45-.53-.34-.62-.4-.59-.4-.53-.37-.53-.37-.58-.42-.46-.32-.44-.32-.5-.36-.41-.32-.49-.36-.53-.39-.67-.51-.6-.47-.75-.61-.61-.5-.59-.48-.61-.52-.57-.48-.53-.48-.5-.45-.62-.56-.59-.52-.6-.57-.53-.5-.65-.64-.5-.49-.5-.5-.69-.7-.57-.58-.52-.56-.9-.94-.58-.65-.7-.8-.46-.51-.67-.77-.56-.67-.43-.53-.54-.64-.46-.6-.35-.44-.48-.6-.62-.81-.48-.62-.45-.64-.56-.75-.51-.7-.57-.82-.47-.72-.59-.88-.45-.68-.69-1.09-.58-.96-.89-1.49-.37-.61-.65-1.19-.37-.65-.37-.67-.45-.82-.56-1.06-.4-.82-.4-.81-.38-.76-.36-.73-.37-.78-.35-.81-.33-.77-.33-.75-.41-.99-.36-.87-.32-.81-.29-.72-.34-.91-.3-.81-.33-.98-.39-1.11-.25-.75-.24-.81-.28-.89-.24-.81-.35-1.2-.27-.92-.23-.89-.23-.94-.25-.94-.25-1.01-.15-.77-.18-.73-.13-.68-.21-1.06-.18-.85-.15-.86-.16-.91-.19-1.16-.13-.87-.1-.74-.11-.75-.1-.82-.1-.87-.09-.83-.07-.7-.1-1.06-.1-1.09-.06-.88-.05-1.01-.07-1.41-.05-1.07-.02-.93v-1.39s-.04-1.12-.04-1.12l.02-.94.02-1.47.04-1.19.08-1.62.07-1.14.09-1.22.1-1.46.11-1.13.16-1.21.11-1.06.16-1.15.17-1.08.2-1.25.33-1.99.34-1.74.26-1.25.3-1.37.47-1.89.36-1.4.42-1.53.36-1.27.58-1.81.64-1.92.76-2.17.87-2.23.97-2.39,1-2.21,1.26-2.65.97-1.95,1.1-1.95,1.32-2.41,1.06-1.72,1.2-1.83,1.21-1.81.88-1.31.89-1.18.94-1.3.69-.89,1.36-1.71,1.1-1.3,1.04-1.25,1.65-1.82,1.13-1.22,1.27-1.35,1.86-1.81,1.62-1.5,1.45-1.34,1.8-1.53,1.86-1.51,2.42-1.9,2.29-1.64,1.93-1.3,1.89-1.25,2.04-1.23,2.52-1.45,1.88-1.02,2-1.03,1.61-.75,1.45-.67,1.68-.74,1.28-.55,1.1-.54Z"/>
      <path class="cls-17" d="M98.08,58.37l1.89,4.69-.49.17-.86.31-.48.18-.96.36-.99.4-.62.26-.65.27-.65.28-.58.25-.69.31-.68.3-.76.36-.58.28-.96.47-.7.34-.63.33-.51.27-.55.3-.59.32-.68.37-.59.33-.64.37-.69.4-.61.37-.65.39-.54.33-.42.27-.45.28-.54.35-.62.4-.5.34-.33.22-.46.31-.47.33-.43.29-.46.33-.45.32-.48.34-.36.28-.36.27-.33.24-.51.38-.45.34-.41.32-.53.42-.36.28-.5.42-.45.36-.45.37-.34.3-.31.26-.35.31-.45.38-.4.36-.28.25-.27.23-.29.26-.28.26-.5.45-.55.52-.48.46-.53.5-.36.35-.7.69-.51.52-.67.69-.43.45-.41.45-.51.55-.64.7-.53.6-.48.54-.59.69-.81.97-.51.63-.82,1.01-.36.46-.32.4-.61.8-.45.61-.47.66-.41.57-.34.47-.37.54-.59.85-.39.58-.37.56-.34.53-.37.58-.48.76-.36.59-.34.56-.33.54-.4.69-.42.72-.31.55-.27.49-.37.68-.31.59-.41.77-.38.73-.44.88-.36.74-.31.64-.4.84-.39.85-.34.77-.44,1.01-.33.79-.33.8-.29.72-.39.99-.27.71-.23.64-.29.8-.22.63-.21.59-.23.7-.28.85-.26.82-.24.77-.25.84-.25.85-.25.92-.16.61-.15.59-.18.72-.13.5-.13.57-.12.5-.15.65-.12.6-.17.77-.1.51-.13.67-.14.75-.19,1.13-.15.88-.14.91-.13.92-.12.9-.09.76-.13,1.14-.09.88-.1,1.04-.06.7-.09,1.28-.05.88-.07,1.24-.02.58-.03.91-.02.69-.02.91v1.19s0,.7,0,.7v.99s.02.82.02.82l.02.66.04,1.04.04.78.05.86.06.85.07.95.06.66.06.69.09.88.09.82.1.84.08.6.13.95.13.88.14.85.12.8.16.96.12.67.15.76.13.7.13.62.15.75.19.81.15.65.13.59.14.58.16.63.17.63.15.53.13.49.11.41.17.58.18.64.15.52.18.57.19.6.22.71.2.58.18.55.27.78.23.67.2.54.38,1.04.25.65.33.85.31.78.38.9.39.92.3.68.38.85.45.96.41.87.39.78.5.98.42.83.36.69.5.94.48.85.43.75.33.58.53.9.41.68.42.69.48.75.44.7.52.78.56.85.51.75.61.87.52.72.45.62.56.75.36.48.52.67.45.56.54.69.64.78.44.53.43.51.62.73.58.66.53.6.44.49.54.58.36.38.56.6.54.56.58.58.6.6.54.54.55.53.62.59.68.63.4.37.62.55.64.56.54.47.51.44.56.48.84.69.49.4.54.43.71.55.44.34.5.37.42.32.49.36.61.45.5.36.55.38.54.37.84.57.55.37.69.45.72.47.85.54.88.54.97.56.66.38.97.56.92.51.69.37.43.22,1.09.57,1.06.52.85.42.92.43.76.35,1.18.52,1.17.5.81.33.8.33.89.35.9.34.98.36.85.3.83.28,1.15.37.71.22,1.24.38,1.19.34,1.38.37,1.02.25,1.09.27,1.35.3,1.09.24.95.18,1.13.21.77.13.84.15.78.11.86.12.7.1.59.08.72.08.97.12.69.06.34.03.63.05.47.04.56.05.78.05.55.04.84.04.84.05.99.03h.72s1.1.03,1.1.03h1.26s1.2-.02,1.2-.02l1.32-.03,1.15-.05,1.15-.05,1.22-.09,1.48-.12,1.16-.1,1.27-.15,1.04-.13,1.24-.17,1.27-.19,1.01-.16,1.11-.19.88-.16.9-.19.78-.16.89-.19,1.29-.31,1.56-.38,1.01-.27,1.05-.3,1.53-.45,1.16-.36,1.2-.4,1.32-.45,1.05-.38.93-.37,1-.38.88-.35,1.03-.44.74-.32.72-.31.65-.29.73-.34.45-.23,1.27-.61,1.09-.55.61-.31,1.09-.58,1.26-.69.99-.57,1.22-.71.91-.54.91-.58.82-.51.72-.47.61-.4.64-.44.49-.34.74-.52.81-.58.78-.58.55-.41.51-.38.66-.51.6-.47.62-.5.86-.7.63-.53.69-.6.66-.56.44-.4.43-.38.32-.28.43-.4.42-.38.48-.46.5-.47.46-.45.48-.47.52-.52.4-.4.55-.57.71-.74.67-.72.65-.71.57-.63.78-.89.61-.72.58-.69.62-.75.57-.71.88-1.13.59-.77.54-.73.68-.91.67-.93.69-1.03.54-.8.63-.98.64-.99.55-.87.53-.88.44-.73.53-.94.46-.78.47-.85.42-.79.44-.83.41-.8.41-.83.61-1.27.78-1.66.63-1.43.64-1.52.61-1.51.61-1.61.62-1.73.64-1.93.61-1.96.58-1.99.52-2.01.51-2.11.44-2.07.37-1.93.31-1.86.37-2.45.21-1.73.19-2.07.14-1.65.14-2.19.08-2.19.05-2.52-.02-2.52-.1-2.54-.2-2.84-.14-1.64-.19-1.66-.18-1.47-.2-1.36-.25-1.56-.26-1.49-.24-1.26-.29-1.45-.43-1.89-.49-1.94-.5-1.88-.37-1.29-.51-1.68-.43-1.32-.51-1.53-.42-1.12-.37-1.04-.47-1.18-.42-1.06-.57-1.33-.46-1.06-.6-1.34-.55-1.16-.72-1.46-.52-1.05-.71-1.35-.65-1.17-.76-1.33-.88-1.49-.57-.96-.68-1.06-.6-.92-.55-.84-.56-.82-.58-.83-.37-.51-.56-.78-.43-.59-.65-.84-.48-.64-.68-.85-.57-.72-.56-.68-.74-.9-.61-.7-.85-.98-.56-.61-.87-.95-.77-.8-1.07-1.11-.69-.68-1.08-1.06-.63-.6-1.12-1.03-1.06-.95-.92-.8-1.03-.86-1.22-1.01-.83-.65-.83-.65-.61-.46-.98-.73-.86-.62-1.02-.72-.96-.65-1.06-.71-1.54-.99-1.16-.7-.8-.49-.82-.48-1.39-.78-1.07-.59-.93-.48-.97-.49-1.03-.52-.78-.38-.73-.33-.81-.37-.76-.34-.68-.3-.78-.33-.96-.39-.92-.37-.95-.37-.71-.26-.75-.28-.34-.12,2.05-4.7,2.06,1.01.81.36,1.34.57.75.31,1.09.45.7.29.75.37.71.33.76.37.82.4.83.41.78.39.77.41.87.47.72.39.51.28.7.4.85.49.76.43.25.14.41.23.36.25.62.4.43.28.55.35.75.48.5.36.55.39.38.27.57.41.65.46.5.35.59.43.52.36.58.41.67.47.53.39.31.24.43.35.34.28.32.27.47.39.34.28.55.46.29.24.24.21.37.34.37.34.44.4.46.43.5.46.8.72.62.57.64.59.71.63.56.53.37.34.16.18.44.48.33.36.36.4.49.53.49.54.46.52.54.61.64.73.64.73.46.52.16.2.28.34.29.36.56.68.55.66.8.97.23.32.52.69.38.52.55.73.48.64.13.17.12.19.39.59.27.41.49.73.34.53.61.93.43.65.52.81.47.76.23.38.45.71.38.62.38.59.24.46.4.73.32.58.37.67.35.65.33.61.28.51.17.32.24.51.28.6.25.52.33.71.28.61.3.65.35.74.21.45.23.48.21.54.25.6.22.54.24.59.31.78.24.59.16.42.22.58.22.55.22.59.23.6.27.7.14.42.15.47.18.52.12.38.13.36.15.48.19.58.18.56.08.26.08.28.14.53.16.6.17.66.16.6.21.83.18.7.09.41.18.83.19.87.16.71.12.63.17.7.15.73.15.67.12.71.14.79.12.7.12.73.15.88.12.69.08.55.05.45.05.46.07.6.04.53.06.61.06.61.05.47.06.64.06.5.06.7.04.53.08.69v.29s.02.6.02.6l.03.5.02.61.04.84.05,2.6v2.1s-.02,1.96-.02,1.96l-.03,1.42-.09,1.43-.06,1.05-.08,1.13-.12,1.32-.07.71-.16,1.54-.12,1.11-.12.94-.1.62-.14.92-.11.65-.13.74-.11.65-.15.82-.13.71-.15.86-.06.41-.14.68-.1.46-.1.45-.15.63-.08.33-.11.5-.09.39-.07.35-.08.3-.15.63-.22.83-.26.95-.22.79-.24.81-.31,1.08-.13.4-.27.82-.28.86-.29.88-.37,1.06-.28.77-.27.75-.39.98-.37.98-.27.66-.35.85-.26.6-.38.88-.28.65-.39.86-.37.8-.36.76-.13.27-.33.66-.13.27-.31.6-.27.55-.29.55-.12.25-.22.39-.36.66-.27.52-.32.58-.32.58-.45.8-.43.73-.37.61-.5.82-.52.83-.61.97-.4.61-.4.62-.5.73-.36.52-.4.58-.5.69-.35.5-.45.63-.44.61-.45.6-.44.58-.38.48-.25.33-.49.62-.61.75-.71.85-.65.77-.8.93-.33.37-.42.48-.61.66-.77.83-.65.69-.6.61-.65.67-.85.85-.73.72-.65.63-.81.74-.75.69-.72.64-.66.57-.75.67-.66.54-.73.62-.71.58-.76.6-.78.6-.73.57-.75.53-.44.34-.68.49-.63.45-.7.5-.92.63-.55.35-.56.37-.4.27-.46.3-.32.21-.2.13-.47.28-.41.26-.14.09-.39.23-.49.3-.57.34-.39.23-.64.36-.73.42-.77.43-.78.43-.66.34-.79.41-.7.37-.82.39-.88.44-1.06.51-1.33.59-1.01.44-1.52.63-2,.78-2.13.79-1.5.5-1.42.49-1.24.38-1.51.43-1.22.34-.67.17-1.63.41-1.63.39-1.59.33-1.15.21-1.35.26-1.17.2-1.18.18-1.17.17-1.14.14-.76.09-1.23.14-.74.07-1.66.14-.77.05-1.15.08-1.53.07-1.81.04h-1.49s-.93,0-.93,0h-1.37s-1.05-.04-1.05-.04l-1.54-.07-.82-.05-1.31-.09-1.27-.11-1.16-.11-1.62-.17-1.27-.17-1.53-.21-.97-.16-1.08-.18-1.3-.23-1.28-.25-.87-.17-1.03-.23-.62-.15-.74-.18-1.06-.26-1.07-.26-.73-.21-.79-.22-.86-.25-1-.31-.95-.29-.7-.22-.78-.26-.87-.32-.76-.26-.44-.16-.72-.27-1.1-.42-1.16-.46-.34-.15-.73-.29-.6-.26-.65-.26-.54-.25-.74-.33-.66-.3-.45-.22-.36-.16-.41-.21-.73-.34-1.04-.52-.92-.48-1.85-.98-1.52-.87-1.51-.9-1.87-1.15-2.04-1.34-1.62-1.12-1.7-1.23-1.47-1.09-1.21-.92-1.2-.97-1.69-1.42-1.28-1.11-1.11-1-1.01-.92-.85-.83-.49-.49-.94-.94-.74-.75-.84-.89-.64-.68-.52-.54-.47-.53-.49-.56-.44-.5-.59-.68-.55-.64-.49-.59-.62-.74-.39-.49-.54-.68-.4-.51-.18-.23-.66-.87-.27-.36-.54-.73-.61-.83-.48-.67-.54-.78-.38-.59-.47-.71-.41-.6-.53-.8-.5-.78-.43-.73-.44-.73-.41-.68-.48-.81-.26-.49-.26-.47-.41-.73-.52-.93-.5-.92-.5-.96-.25-.53-.44-.88-.51-1.04-.62-1.26-.53-1.22-.35-.8-.63-1.51-.46-1.15-.55-1.38-.55-1.51-.47-1.38-.54-1.58-.36-1.18-.44-1.46-.43-1.47-.33-1.21-.29-1.19-.31-1.22-.23-1.12-.15-.65-.16-.77-.11-.56-.1-.57-.19-.86-.22-1.26-.15-.9-.17-1.07-.15-1.1-.13-.9-.12-.87-.1-.9-.07-.65-.07-.77-.06-.63-.12-1.29-.08-1.1-.05-1.06-.04-.77-.05-.97-.04-.9-.02-.83v-.83s-.02-.85-.02-.85v-.97s0-.91,0-.91v-.87s.02-.89.02-.89l.03-.84.03-.56.04-.8.04-.81.04-.56.09-1.08.07-1.12.06-.67.08-1.02.13-.91.07-.65.1-.84.12-.91.11-.73.19-1.19.19-1.17.2-1.2.28-1.47.27-1.31.19-.9.24-1.04.32-1.29.43-1.65.39-1.45.35-1.27.42-1.31.37-1.15.44-1.3.44-1.27.4-1.11.45-1.14.42-1.07.52-1.29.43-1.04.4-.88.51-1.12.18-.39.24-.5.52-1.1.36-.74.75-1.52.34-.65.44-.78.64-1.13.49-.88.54-.99.46-.79.5-.8.5-.81.34-.52.45-.67.44-.67.47-.7.51-.76.74-1.1.34-.49.49-.65.46-.63.58-.79.19-.27.22-.28.32-.41.23-.3.43-.54.37-.47.48-.6.53-.63.61-.72.45-.54.34-.42.42-.47.57-.62.41-.46.52-.57.52-.58.48-.52.4-.43.49-.51.5-.52.4-.39.45-.43.45-.44.4-.4.47-.43.62-.58.51-.47.53-.49.5-.46.68-.61.57-.49.51-.43.77-.64.44-.35.63-.53.55-.44.62-.47.67-.52.65-.51.92-.69,1.13-.8.74-.54.85-.57.94-.64,1.17-.78.96-.62.88-.54.93-.56,1.04-.59.96-.56.96-.54,1.64-.88,1.39-.7.93-.45,1.08-.51,1.39-.64"/>
      <path class="cls-10" d="M102.77,69.93l3.06,3.65,2.79.92,3.09,1.03,2.61.78,2.69.67-1.9-2.75-1.89-2.08-2.04-2.31-2.07-2.61-1.19-2.26-1.03-2.69-.57-2.81-.25-2.07.06-2.3.39-1.56,2.57.44,1.68.66,2.01.83,2.26,1.21,2.02,1.54,1.54,1.49,1.79,2.17,1.18,1.81.93,1.89.81,2.41.7,2.3.63,2.46.35,3.06.38,2.46.3,1.9s1.17,3.95,2.68-.35l.37-3.83.18-2.55.43-3.08.68-3.25,1.29-3.15,1.31-2.5,1.59-2.15,1.89-2.12,2.11-1.34,2.05-1.17,2.02-.81,2.16-.58,2.37-.32,2.84-.12,2.27.06-.07,3.47-.21,2.36-.68,2.53-1.15,3.02-1.25,2.46-1.53,2.4-1.55,1.87-2.17,2.17-1.52,1.71-1.61,1.78,2.53-.3,2.14-.61,2.31-.69,2.56-.65,2.3-.73,1.32-.71,1.62-2,.56-1,.56.19.37.12.39.14.44.15.44.16.41.15.51.18.42.16.38.14.54.21.42.17.36.14.54.23.34.13.57.23.49.22.48.21.58.26.5.22.72.33.55.26.49.24.53.26.52.25.51.26.38.2.4.21.5.26.49.27.48.26.46.25.47.26.42.24.37.2.46.28.54.31.51.31.54.32.5.31.37.24.63.4.44.29.37.24.44.3.55.38.43.3.45.31.43.3.63.45.58.43.53.39.38.28.49.38.51.38.47.37.58.47.52.42.58.48.49.42.47.41.56.49.5.43.36.33.52.46.48.45.7.65.54.53.36.36.43.42.39.4.36.36.39.4.42.44.48.5.41.45.51.56.43.47.37.42.64.73.4.45.56.66.39.48.44.53.4.51.32.39.55.7.4.55.4.52.39.54.41.56.37.51.4.57.36.51.33.49.47.7.42.63.33.52.37.59.32.52.28.44.3.49.27.47.42.71.26.45.22.4.3.53.19.34.18.32.23.43.27.52.27.51.23.45.29.57.28.57.28.57.24.51.18.38.28.6.23.51.2.45.22.51.21.48.25.59.26.62.22.52.27.7.24.62.21.55.21.57.24.67.2.56.17.46.26.75.18.54.17.53.2.66.15.5.14.45.22.76.16.59.13.46.16.6.12.46.12.47.17.68.12.53.13.54.14.65.14.62.11.57.13.6.09.48.08.41.13.74.1.57.08.43.09.6.08.53.11.71.08.61.11.79.07.54.08.62.08.66.06.65.05.42.06.69.05.6.06.71.03.59.03.49.04.66.03.63.02.6.03.79.02.61v.48s.02.71.02.71v.64s0,.56,0,.56v.46s-.02.7-.02.7l-.02.61v.56s-.04.68-.04.68l-.03.56-.03.72-.04.64-.05.66-.05.71-.04.54-.07.69-.05.6-.05.48-.07.58-.08.73-.06.49-.09.66-.09.66-.09.61-.1.58-.09.58-.12.68-.1.56-.13.73-.12.6-.11.6-.11.54-.12.62-.14.61-.1.41-.14.63-.14.55-.11.47-.17.67-.16.59-.17.63-.15.51-.12.42-.19.63-.17.57-.12.42-.19.6-.2.58-.2.62-.26.74-.27.75-.2.57-.15.42-.26.67-.23.59-.17.43-.29.74-.25.59-.32.75-.22.51-.26.59-.27.6-.29.63-.23.47-.27.56-.26.53-.2.41-.21.44-.29.57-.27.52-.18.35-.35.65-.29.52-.43.79-.29.51-.26.44-.28.49-.23.38-.28.48-.3.49-.27.44-.41.65-.37.57-.51.79-.35.53-.22.34-.37.54-.35.51-.57.8-.53.72-.49.67-.42.55-.35.46-.45.57-.33.42-.53.66-.48.58-.55.66-.42.49-.56.65-.44.5-.46.52-.54.6-.54.58-.62.64-.6.62-.43.45-.75.75-.37.36-.49.48-.37.35-.82.77-.33.29-.52.47-.42.38-.62.54-.61.52-.45.39-.36.3-.86.7-.66.53-.68.53-.46.36-.62.46-.52.39-.52.38-.57.41-.45.31-.41.29-.64.45-.39.26-.62.42-.53.35-.35.24-.89.56-.57.35-1.2.72-.53.32-.52.3-.56.32-.5.27-.61.33-.59.33-.86.45-.6.31-.56.28-.62.3-.65.32-.58.27-.46.22-.53.25-.5.22-.48.22-.5.22-.74.32-.56.23-.42.17-.42.17-.61.24-.42.16-.45.17-.47.17-.41.16-.59.21-.5.18-.49.17-.43.14-.56.19-.53.18-.41.13-.44.14-.44.13-.62.18-.44.13-.5.15-.57.15-.4.11-.51.15-.36.09-.53.13-.33.09-.38.08-.6.14-.48.11-.6.13-.51.11-.84.18-.71.14-.41.09-.91.17-.64.11-.68.11-.62.1-.93.14-.54.08-.94.12-.64.07-.86.1-.66.07-.61.06-.76.07-.96.07-.75.05-1.02.06-.74.03-.81.04h-.64s-.65.02-.65.02l-.53.02h-.52s-.43,0-.43,0h-.71s-.56-.01-.56-.01h-.89s-.6-.03-.6-.03h-.41s-.82-.05-.82-.05l-.65-.03-1.11-.06-.7-.06-.99-.08-.56-.04-.94-.09-.72-.08-.94-.11-.65-.08-.63-.09-.59-.08-1.19-.18-.57-.09-.46-.09-.63-.1-.43-.08-1-.2-.7-.15-.86-.18-.57-.13-.64-.14-.49-.12-.86-.22-.61-.17-.55-.14-.52-.14-.38-.11-.88-.25-.53-.15-.48-.14-.73-.23-.57-.19-.98-.33-.6-.2-.95-.33-.61-.23-.72-.27-.83-.32-.51-.2-.74-.3-.55-.22-.55-.23-.55-.24-.64-.29-.51-.23-.81-.38-.54-.24-.75-.37-.56-.27-.32-.16-.7-.35-.62-.32-.5-.25-.54-.29-.57-.32-.69-.38-.52-.29-.74-.44-.52-.3-.52-.3-.61-.38-.55-.34-.56-.35-.65-.42-.53-.35-.56-.37-.58-.4-.41-.28-.79-.55-.64-.46-.76-.57-.54-.39-.61-.47-.48-.37-.71-.56-.41-.32-.63-.52-.54-.45-.39-.33-.63-.55-.47-.4-.54-.48-.33-.3-.49-.44-.51-.47-.62-.59-.41-.39-.55-.53-.35-.34-.51-.51-.47-.48-.31-.31-.57-.6-.45-.48-.45-.49-.63-.69-.41-.46-.58-.66-.43-.5-.6-.72-.43-.52-.43-.53-.37-.46-.35-.43-.54-.71-.45-.58-.59-.79-.33-.45-.43-.6-.33-.45-.38-.54-.3-.43-.36-.53-.39-.59-.29-.45-.55-.85-.38-.6-.33-.54-.31-.52-.25-.43-.41-.69-.3-.52-.3-.54-.43-.75-.34-.62-.29-.54-.22-.4-.27-.52-.2-.39-.28-.55-.29-.6-.4-.83-.27-.54-.32-.7-.27-.6-.24-.53-.27-.6-.27-.65-.21-.51-.28-.68-.26-.65-.27-.69-.2-.53-.27-.73-.19-.52-.26-.74-.23-.65-.21-.64-.17-.52-.2-.6-.15-.5-.21-.68-.13-.43-.15-.51-.2-.73-.22-.81-.19-.73-.17-.71-.15-.6-.18-.76-.2-.87-.19-.88-.17-.86-.14-.77-.14-.78-.13-.69-.11-.72-.1-.64-.09-.59-.1-.75-.1-.74-.07-.59-.11-.96-.06-.6-.07-.74-.07-.63-.05-.7-.04-.6-.06-1.01-.04-.66-.03-.67-.05-1.17-.02-.89v-.91s-.02-.67-.02-.67v-1.19s.02-.74.02-.74v-.8s.04-.8.04-.8l.04-.67.04-.76.03-.53.04-.67.04-.51.04-.6.05-.6.06-.61.05-.53.05-.53.09-.77.08-.59.07-.66.12-.78.07-.53.07-.46.1-.62.11-.72.09-.48.13-.79.13-.67.09-.41.17-.82.15-.73.1-.45.17-.74.17-.71.2-.82.19-.74.16-.6.21-.78.17-.62.17-.55.29-.95.2-.64.24-.75.17-.53.34-.97.18-.54.4-1.08.22-.62.32-.81.3-.75.14-.35.22-.55.28-.67.35-.8.3-.67.34-.73.32-.69.33-.7.33-.69.37-.73.35-.69.37-.72.51-.94.28-.5.32-.57.28-.5.35-.59.26-.43.41-.69.33-.55.45-.72.3-.48.52-.81.36-.54.39-.59.22-.32.52-.75.34-.5.24-.34.42-.57.47-.63.36-.48.5-.66.38-.5.49-.62.42-.52.41-.5.36-.43.47-.55.42-.49.56-.64.39-.43.45-.49.34-.38.41-.44.5-.54.41-.43.49-.51.38-.39.56-.55.39-.39.54-.53.43-.41.36-.34.5-.47.36-.33.6-.54.43-.37.59-.53.48-.42.46-.39.38-.31.54-.45.4-.32.55-.44.37-.29.38-.3.48-.38.32-.24.66-.5.44-.31.4-.3.61-.44.49-.34.37-.25.34-.24.5-.35.45-.3.44-.29.47-.31.53-.34.44-.29.48-.28.43-.28.65-.39.49-.28.58-.34.5-.29.48-.27.58-.32.53-.29.8-.43.74-.38.52-.26.67-.35,1.19-.58.55-.26.99-.45.71-.32,1.04-.45.75-.32.98-.4,1.3-.5.59-.23.78-.28.47-.17.78-.27.71-.23"/>
    </g>
  </g>
  <g id="Layer-11">
    <path class="cls-18" d="M100.45,62.86s-6.61,2.14-14.48,6.54c-2.94,1.64-5.96,3.59-9.26,5.98-6.05,4.4-12.22,10.25-17.96,17.64-1.18,1.52-2.23,3.01-3.39,4.68-5.62,8.11-10.64,18.78-13.5,30.55-1.01,4.16-1.62,8.38-2.09,12.8-.08.75-1.44,11.25,1.02,25.36,2.02,11.59,6.7,25.7,16,38.22,4.46,6,9.25,11.6,15.02,16.48,10.73,9.07,23.5,15.11,35.6,18.35,4.79,1.28,17.01,3.74,30.89,2.27,4.9-.52,10.76-1.66,16.58-3.41,4.91-1.48,9.83-3.44,13.58-5.35,1.51-.77,2.63-1.36,4.8-2.56,2.98-1.64,7.82-4.65,17.34-13.03,1.54-1.36,5.21-5.52,7.83-8.64.9-1.07,4.42-5.65,7.89-11.52,2.48-4.21,4.82-9.18,6.66-13.56,1.06-2.51,2.33-7.07,3.34-11.02.88-3.44,1.5-5.69,2.41-14.88.46-4.68.32-9,.26-12.75-.01-.8-.26-16.09-7.89-32.95-2.79-6.16-4.2-7.96-6.15-11.37-2.29-4-6.25-9.02-8.8-11.93-3.86-4.42-5.62-6.17-11.72-11.27-2.1-1.76-3.71-2.9-7.69-5.49-2.48-1.62-6.12-3.62-9.55-5.3-3.43-1.69-8.58-3.59-8.58-3.59l-2.71,4.99-.47,1.19v.74s4.76,1.6,9.78,3.94c6.15,2.86,13.3,7.05,20.44,13.46,15.94,14.31,22.67,33.18,23.74,36.83,1.55,5.31,5.24,20.45,4.61,29.69-1.2,17.56-5.36,28.85-10.1,36.97-4.5,7.74-8.77,14.56-14.55,19.89-10.3,9.49-31.2,24.71-57.92,25.43-17.04.46-25.85-1.82-38.56-7.76-7.23-3.38-14.79-8.45-21.68-15.19-4.63-4.52-9.07-9.55-13.08-15.75-5.89-9.1-7.69-14.79-9.73-20.15-3.28-8.64-4.52-24.27-4.17-29.59,1.46-22.07,8.18-33.79,12.58-40.9,17.92-28.93,46.93-37.21,46.93-37.21l-2.41-4.14-.87-2.66Z"/>
    <path class="cls-18" d="M102.72,69.98l3.09,3.62,3.58,1.18,3.84,1.22,2.23.61,1.53.38-1.9-2.77-2.23-2.45-1.77-2-2-2.53-1.2-2.29-.99-2.67-.6-2.87-.25-1.99.08-2.32.39-1.58,2.56.48,3.7,1.48s9.56,3.59,11.84,17.5l.9,6.51s1.04,5.18,2.85.2l.47-5.47.37-3.48.82-3.58,1.22-3.12,1.34-2.55,1.57-2.14,1.92-2.16,1.93-1.21,2.22-1.27,2.02-.8,2.15-.58,2.35-.32,2.72-.11,2.41.05-.06,3.5-.21,2.34s-.66,2.45-1.34,4.35c-.49,1.37-.85,1.99-1.64,3.41-1.87,3.4-4.51,5.83-4.51,5.83l-.97,1.01-1.35,1.52-.96,1.06s-.58.68-.71.79l2.6-.32,2.46-.71,2.04-.6,2.45-.63,2.32-.72,1.31-.74,1.62-2,.52-.94,1.36.43.62-2.33.68-2.5.71-3.65.24-2.12.27-2.2.02-2.54s2.99-7.75-5.42-9.84c0,0-15.7-4.89-27.45,11.7l-3.36-3.51s-2.23-3.19-6.95-5.27c-2.64-1.16-3.41-1.53-7.74-2.26-3.04-.51-4.67-.42-5.23-.3-3.75.82-4.63,3.53-4.63,9.13s1.38,8.29,1.38,8.29c0,0-2.01,4.51,1.19,3.34"/>
  </g>
  <g class="cls-20">
    <g id="Layer-7">
      <path class="cls-17" d="M95.65,59.47l-.05-.66-.05-.75-.05-.7-.06-.78-.05-.71-.05-.61-.02-.38.02-.32.04-.62.04-.66.05-.58.03-.53v-.17s.1-.5.1-.5l.11-.59.07-.38.1-.55.09-.47.05-.3.15-.54.12-.48.16-.32.15-.36.12-.34.16-.34.13-.25.06-.16.1-.17.06-.12.13-.26.13-.25.13-.22.15-.22.23-.34.3-.36.23-.24.1-.1.2-.17.15-.11.26-.19.21-.13.37-.27.23-.14.25-.11.24-.15.29-.07.39-.14h3.4l1.31.07h.37s.12,0,.12,0h.17s.3.07.3.07l.58.05.3.03.54.03.54.07.89.12.44.06.56.18.78.26.78.26.61.2.34.15.52.21.43.19.4.17.61.26.32.16.36.17.52.26.54.28.39.19.45.23.09.04.42.29.3.2.51.36.56.39.37.25.55.49.58.51.65.57.7.63.31.3.69.66.62.59.39.4.32.38.33.55.23.38.1.15.26.43.15.25.25.46.17.29.14.26.51-.9.45-.75.42-.66.34-.45.43-.58.36-.49.3-.35.27-.34.31-.33.22-.24.23-.24.33-.33.32-.32.44-.47.38-.35.42-.44.33-.26.36-.38.46-.32.51-.34.55-.37.42-.28.42-.28.42-.29.5-.24.44-.21.44-.21.37-.17.44-.21.68-.32.53-.24.57-.16.59-.13.78-.23.78-.27.71-.2.72-.16.61-.13.69-.11.67-.02.86-.1h.65s.61-.02.61-.02l.75-.04.63-.02.59-.02.46.02.8-.06h.63s.89-.03.89-.03l.69.03.43.04.61.1.46.04.64.07.63.1.78.16.44.13.53.24.57.26.58.27.64.41.52.39.41.34.35.34.31.27.43.46.22.3.3.74.21.59.09.36.09.34.09.34.09.4.07.42.04.3.06.38.06.37.06.34.04.41v.36s.02.51.02.51v.7s-.04,1.14-.04,1.14l-.11,1.16-.11,1.28-.12.96-.08.98-.06,1.5-1.34.52-.86,1.27-.89,1.31-.24.35.13-.67.09-.51.05-.46.05-.46.08-.63.08-.77.09-.71.1-.8.05-.42v-.37s0-.38,0-.38v-.39s0-.35,0-.35v-.47s0-.48,0-.48l.02-.22.03-.23.05-.36.03-.36v-.38s.02-.67.02-.67v-.39s-.03-.59-.03-.59l-.03-.72-.03-.61-.08-.76-.13-.61-.13-.36-.13-.27-.22-.4-.21-.32-.33-.4-.28-.29-.29-.26-.48-.36-.33-.22-.48-.27-.43-.21-.68-.28-.42-.14-.54-.15-.34-.1h-6.97l-.74.05-.58.06-.85.06-.96.08-.33.03-.38.07-.45.09-.4.08-.61.11-.49.09-.69.13-.37.14-.59.23-.54.21-.33.12-.66.25-.42.17-.49.29-.39.24-.63.39-.45.28-.71.43-.71.45-.8.51-.58.37-.49.36-.44.39-.52.44-.51.52-.53.5-.36.4-.42.46-.4.46-.39.47-.26.3-.27.32-.28.38-.34.43-.69.84-.2.27-.25.35-.17-.18-.24-.25-.24-.27-.27-.3-.38-.41-.55-.61-.66-.72-.52-.57-.27-.29-.4-.35-.55-.49-.71-.63-.45-.39-.52-.44-.93-.73-1.04-.83-.44-.32-.37-.2-.87-.48-.92-.51-.68-.27-.45-.17-.84-.32-.87-.34-.79-.18-.8-.19-.98-.23-.33-.07-.8-.13-1.1-.18-.79-.22-1.02-.09-.61-.1-.95-.04h-.76s-.95.11-.95.11l-.48.09-.53.13-.49.17-.45.21-.57.33-.47.35-.47.49-.46.66-.33.71-.2.77-.07.62v.4s-.06.72-.06.72l-.06.86-.1,1.27-.07,1,.08.7.1.86.09.78.13,1.12.15.67.09.41.11.45.12.56.11.49.14.63.08.38.04.18.12.52.18.81"/>
      <path class="cls-23" d="M82.15,193.78l4.71,7.47,5.18,6.26,5.65,4.66,4.42,3.26,4.74,3.3,6.65,3.72,5.74,2.98,4.91,1.76,3.54,1.28,2.73-.34,3.29-.46,3.35-1.43,3.84-1.69,4.24-1.94,3.81-1.88,3.81-2.6,4.01-2.53,3.62-2.91,3.72-2.92,3.36-3.78,3.78-3.84,2.54-4.48,2.55-4.39,1.55-4.68,1.48-5.53.59-7.03-.34-5.67-1.19-5.47-1.83-4.73-2.6-5.19-2.52-3.99-3.62-3.49-4.34-3.49-4.82-2.63-4.59-1.68-5.39-.76-4.45.2-4.34.93-2.95.87-1.96,1.16,1.87,1.65,2.15,1.49,2.96,2.37,2.72,3.31,2.34,3.05,1.91,3.25,1.59,3.31,1.67,3.83,1.01,4.15.92,3.68.37,4.68-.2,5.06-.37,4.83-1.03,4.79-1.81,5.65-3.57,6.6-3.13,4.61-4.16,4.74-4.12,3.51-3.16,2.25-4.26,2.66-2.43.9-.15-1.18,1.31-.75,2.34-1.96,2.17-2.27,2.6-2.9,3.02-3.97,2.26-4.24,2.02-3.95,1.62-4.01,1.32-4.11,1.23-4.13.91-4.79.28-4.5-.11-5.63-.8-3.73-1.18-4.1-1.95-5.01-1.67-4.2-2.94-4.13-3.51-3.63-3.23-2.3-4.41-2.91-3.64-1.99-4.06-1.63-2.92-.99-4.05-.37h-4.62s-3.49.7-3.49.7l-4.28,1.19-4.68,2.4-2.97,2.03-3.13,2.79-2.91,3.2-3.12,5.01-2.05,4.51-1.17,3.35-1.01,4.49-.56,5.08-.24,6.72.84,4.79,1.08,3.75,1.67,4.65Z"/>
      <path class="cls-7" d="M70.89,161.91l1.16-3.55,1.1-3.03,1.27-2.84,1.47-2.59,1.3-2.12,2.48-3.19,2-2.03,2.45-2.55,2.17-1.93,2.11-1.15-.14-3.45-.79-2.86-1.24-3.32-1.47-3-2.04-3.12-2.65-2.99-2.53-2.09-3.5-1.7-2.96-.58-3.08-.05-3.36,1.39-3.05,2.34-1.48,1.93-.97,1.99-.84,2.47-.68,2-.33,2.59-.43,2.82-.02,2.95-.03,3.29.53,3.11.6,3.06,1.63,4.13,1.67,3.05,1.88,3,2.12,2.88,2.4,2.52,3.27,2.62Z"/>
      <path class="cls-7" d="M96.9,122.77l3.84,3.92,3.4,2.15,3.03,1.02,3.56.1,4.08-1.08,2.75-2.03,2.8-3.21,2.23-4.37,1.39-4.33.64-4.89-.39-5.34-.96-5-1.63-5.03-2.48-4.47-3.04-3.52-3.23-2.32-3.86-1.78-3.76-.82-3.41.1-3.8,1.86-2.55,2.71-2.23,3.42-1.59,3.46-1.09,3.15-.29,4.13-.1,4.05.35,3.55.8,3.68,1.16,3.5,1.78,3.26,2.58,4.12Z"/>
      <path class="cls-7" d="M139.38,125.24l3.99,3.45,3.78,1.22,4.25-.18,3.39-1.02,2.78-1.76,2.65-2.5,2.7-3.7,2.01-3.71,1.55-4,1.48-4.64.36-4.24.14-4.75-1.09-4.56-1.36-3.81-2.25-3.3-2.82-2.93-2.14-1.59-4.01-1.13-3.42-.1-2.81.25-2.96,1.9-2.68,2.13-2.29,2.51-2.04,2.8-1.9,3.63-1.42,3.75-.97,4.28-.49,4.54.3,4.68.83,4.88,1.74,4.42,2.68,3.51Z"/>
      <path class="cls-7" d="M169.81,136.54l3.76,2.79,2.11,2.15,1.75,2.04,2.14,2.74,2,2.84,1.23,2.35,1.67,2.95,1.01,2.56.8,2.41.35,1.94.33,1.03,3.11-2.16,1.92-2.06,2.34-2.56,2.28-3.09,1.83-3.27,1.32-3.11,1.11-3.66.69-2.98.04-3.62v-3.09s-.44-4.13-.44-4.13l-.68-3.1-.98-3.39-1.1-2.57-1.76-2.37-2.24-1.92-2.22-1.5-3.14-.23-2.44.08-2.29.39-2.68,1.11-2.22,1.61-2.08,2.1-1.63,2.18-1.84,2.82-1.07,2.05-1.37,3.13-.91,3.02-.78,2.75.09,1.79Z"/>
    </g>
  </g>
  <g id="Layer-6">
    <path class="cls-2" d="M99.95,63l-1.12-5.05-.39-3.49.28-3.82s-.39-5.55,7.14-4.99l4.49.75,2.79.64,2.82,1.09,2.23,1.23,2.62,2.09,2.37,2.09,2.04,2.23,1.23,1.34,1.71-2.39,1.55-1.84,2.44-2.24,2.66-1.69,2.74-1.68,2.93-1.13,3.01-.56,3.45-.28h3.87l3.1.02s5.18.91,5.45,5.05c.27,4.14-.02,4.5-.02,4.5l-.02,2.78-.52,4.41-.2,1.02,1.46.55.68.25.7.27.56.22.65.27.74.31.58.25.68.3.6.27.6.27.57.26.61.28.73.36.59.29.65.32.56.29.62.32.39.21.66.35.43.23.49.28.41.22.63.36.86.5.44.27.75.46.55.34.72.45.47.3.77.5.8.54.46.31.42.29.53.37.51.37.51.36.51.37.61.46.71.53.43.34.48.37.51.4.55.43.52.43.64.52.69.59.59.51.59.51.54.48.69.62.47.43.8.75.37.36.77.74.87.87.65.67.68.7.69.73"/>
  </g>
  <g id="Layer-3">
    <path class="cls-3" d="M39.39,150.06c0-50.8,40.22-91.99,89.83-91.99s89.83,41.18,89.83,91.99-40.22,91.99-89.83,91.99-89.83-41.18-89.83-91.99Z"/>
    <path class="cls-12" d="M144.56,123.78l-.02,1.71-.55,1.89.09,1.53.98.31,1.42.48s.19.06.66.1c.47.04,1.22.07,1.22.07l.88-.05.87-.04,1.15-.05s.15-.04.43-.11c.27-.07.66-.18.66-.18l.96-.29.76-.23.49-.14s.15-.04.38-.17c.24-.13.56-.35.56-.35l.59-.39.68-.42s.42-.26.78-.54c.36-.28.66-.57.66-.57l.64-.6.52-.49.64-.59.24-.24.33-.43.36-.49.45-.61.47-.66.38-.5.44-.6.28-.38.39-.73.34-.6.29-.56.41-.74.39-.73.19-.36.26-.67.26-.67.36-.95.27-.67.24-.61.16-.42.25-.79.18-.56.2-.59.17-.54.24-.74.15-.5s.11-.23.18-.5c.07-.27.06-.31.11-.58.05-.27.08-.51.08-.51l.05-.63.06-.73.08-.92.04-.52.06-.73.02-.63.02-.63.02-.73.04-.93.05-.69s.02-.4,0-.76c-.03-.36-.04-.32-.1-.69-.06-.37-.14-.8-.14-.8l-.14-.61-.14-.6-.19-.78-.18-.77-.16-.69-.04-.11-.22-.62-.19-.64-.19-.57-.1-.36s-.09-.26-.21-.57c-.11-.31,0-.13-.38-.84-.37-.71-.54-.89-.54-.89l-.25-.33-.36-.53-.38-.56-.44-.65s-.13-.2-.34-.46c-.21-.26-.51-.57-.51-.57l-.69-.72-.51-.53-.65-.66s-.36-.35-.62-.58c-.26-.24-.43-.36-.43-.36l-1.03-.75-.78,1.13-1.03.8-1.1.74.56,1.13,1.03,1.54.45,1.16.89,1.75v1.66l.88,2.48.38,4.62-.23,2.9-.13,2.35-1.45,4.47-1.59,3.19-1.39,2.35-1.65,2.06-2.23,2.44-1.75,1.58-1.87,1.06-1.43.77-2.37.39"/>
    <path class="cls-12" d="M98.77,123.5l1.5-.53,1.29-.35,2.01.59,1.94-.71,1.6-1.3,1.59-.53,1.3-1.47,1.66-2.58,1.4-1.42.53-3.01.78-2.13.07-1.84.18-1.15-.17-2.03-.02-1.93-.33-2.37-.02-1.44-.29-2.71-.31-1.15-1.35-3.37-.98-1.79-1.42-1.85-1.79-2.53,1.2-.67.84-.59.68-.44.57-.17.43-.27,1.23.56,1.53,1.09,1.7,1.24,1.02,1.19,1.05,1.22.95,1.1.68,1.24.82,1.49.82,1.46.17.32.21.65.32.99.38,1.18.3.96.4,1.21.17.9.17.93.21,1.13.24,1.25.16.83.02.38.07,1.02.08,1.01.06.88.07,1,.08,1.06-.11.76-.1.76-.12.99-.08.64-.12.93-.1.8-.2.59-.23.7-.27.85-.3.94-.35,1.08-.04.14-.35.67-.37.73-.4.8-.35.68-.35.69-.4.79-.45.51-.43.49-.64.74-.6.69-.68.79-.69.5-.39.29-1.09.8-.26.18-.33.25-.87.23-1.01.26-.91.25-.95.24-.31.1-.87-.03-.89-.02-.88-.03-.94-.03-.67-.23-.66-.22-1.17-.4-.51-.17-.83-.52-.87-.56-.69-.43-1.02-.64-.61-.62-.71-.73-.87-.88"/>
    <path class="cls-12" d="M57.6,125.7l-.22,2.12-.21,1.45-.11.75-.11.7-.05.34-.04.24v.7s0,.5,0,.5v.56s0,.53,0,.53v.6s-.01.69-.01.69v.48s0,.8,0,.8v.35s-.01.6-.01.6v.44s.1.61.1.61l.11.69.08.5.13.76.15.85.17.86.18.94.16.81.02.16.19.49.25.65.21.51.24.61.22.55.26.63.27.7.41.74.41.75.46.86.44.79.44.7.51.82.53.84.36.57.22.3.35.48.32.44.46.63.58.79.17.23.58.59.61.64.68.72.51.55.49.37.58.48.55.45.55.43.73.58.36.31.21-.67.3-.92.41-1.24.4-1.2.46-1.26.67-1.74.76-1.69.33-.76.74-1.32.71-1.23.88-1.42.42-.7.63-.81,1.04-1.34.82-1.04.81-.82.82-.84.92-.94.61-.62,1.27-1.35,1.06-.92.22-.24.21-.18-.62-.84h-3.31l-1.91.1-2.23-.1-2.15-.31-2.12-.21-1.7-1.21-2.27-.8-2.36-1.74-2.69-1.69-1.12-1.37-1.28-1.58-.88-1.57-.72-1.12-2.15-1.75-.49,1.24Z"/>
  </g>
  <g id="Layer-8">
    <path class="cls-13" d="M170.07,136.72l.79.59.92.68.72.53.9.67.38.28.63-.45h.38s.45,0,.45,0h.55s.49,0,.49,0h.17s.49.04.49.04l.43.04h.15s.59.03.59.03l.68.02.63.02h.8s.44.01.44.01h.44s.71-.15.71-.15l.44-.1.39-.08.53-.17.45-.16.34-.1.25-.08.29-.09.5-.27.48-.25.45-.25.47-.25.43-.22.44-.23.34-.17.33-.28.24-.21.33-.29.31-.27.36-.31.17-.12.35-.22.3-.19.32-.21.21-.14.14-.08.18-.18.35-.3.25-.23.26-.23.3-.27.32-.29.26-.25.21-.23.23-.28.24-.3.34-.42.19-.24.19-.24.28-.46.17-.27.2-.31.09-.17.13-.24.14-.28.11-.24.14-.33.14-.31.09-.18.18-.39.26-.53.12-.26.15-.29.09-.17.05-.35.09-.66.04-.43.06-.43.09-.69.09-.6.06-.35.04-.27v-.5s.02-.73.02-.73l.03-.69v-.33s-.05-.48-.05-.48l-.04-.41-.05-.51v-.16s.43-.15.43-.15l.28-.09.45.12-.19-.26-.29-.39-.29-.39s-.14-.21-.23-.32c-.09-.11-.34-.43-1.2-1.14-.86-.7-1.36-1.05-1.36-1.05,0,0-.57-.39-1.22-.7s-1.04-.46-1.39-.55c-.35-.09-.43-.09-.43-.09,0,0-1.01-.15-2.01-.15-1,0-1.3.04-2,.08-.7.04-2,.24-2.37.34-.36.09-.88.27-.88.27l-.92.34s-.89.37-1.17.53c-.28.16-.62.43-.62.43l-.52.39s-.71.52-.83.61-.65.55-.65.55l-.47.47-.59.59-.56.56-.15.15-.28.37-.32.42-.43.56-.16.21-.32.44-.18.24-.21.33-.29.42-.32.48-.28.45-.38.58-.12.19-.18.26-.36.7-.24.46-.39.71-.11.22-.22.49-.28.63-.28.65-.3.7-.3.68-.26.87-.22.71-.2.72-.18.59-.17.61-.19.67-.21.73-.08.29s-.09.48-.11.94c-.02.46.02.89.02.89"/>
    <path class="cls-13" d="M154.15,82.85l1.08,1.02.92.94.85,1.05.65.93.64,1.08.49.81.58,1.15.39,1.13.32,1.06.19.78.2,1.02.22,1.16.25,1.32.07.75.12,1.66.04.95.08,1.28-.08,1.74-.04.93-.07.85-.16,1.12-.14.71-.13.49-.27.86-.33,1.02-.33,1.03-.14.49-.33,1.01-.16.3-.21.38-.24.44-.25.45-.28.52-.31.56-.39.66-.34.54-.35.57-.34.56-.13.22-.14.21-.19.22-.39.47-.36.44-.48.56-.39.43-.38.4-.27.29-.36.38-.3.31-.39.41-.36.38-.39.37-.36.34-.35.33-.31.28-.32.33-.35.17-.44.21-.4.19-.33.16-.34.16-.32.18-.2.11-.41.23-.23.13-.22.12-.16.1-.06.04h-.18s-.23-.02-.23-.02h-.23s-.31,0-.31,0h-.25s-.2,0-.2,0h-.24s-.27,0-.27,0h-.28l-.05.38-.83.1-1.02.04-1.09-.06-.99-.06-.42.31-.33.43-.17.28-.54-.47-.68-.77-.63-.81s-1.01-1.39-1.24-1.77c-.23-.38-.5-.88-.93-1.94-.43-1.06-.65-1.79-.8-2.31-.15-.51-.28-1.29-.28-1.29l-.17-.86-.11-.67-.09-.51-.11-.72-.11-.52-.1-.62-.03-.55-.05-.89-.08-1.08-.04-.85-.06-.78.04-1.23.08-.67.02-.33.07-.52.07-.72.09-.67.06-.61.04-.35.12-.49.08-.4.09-.42.11-.47.08-.36.09-.38.12-.57.11-.48.06-.23s0-.02.06-.25c.07-.22.21-.65.21-.65l.16-.41.2-.51.15-.4.2-.54.05-.14.2-.54.18-.46.35-.75.34-.65.35-.68.37-.73.41-.79.57-.88.44-.58.55-.76.63-.86.32-.38.39-.41.5-.56.5-.53.63-.68.72-.57.49-.41.75-.59.67-.54.64-.42.61-.4.5-.3s.3-.18.67-.35c.38-.18,1.45-.52,2.15-.63,1.43-.24,2.99-.02,2.99-.02l.36.04.65.79Z"/>
    <path class="cls-13" d="M104.26,81.83l1.17,1.73.91.72,1.92,1.64.8.69.55.5.49.43.32.3.36.45.58.78.56.75.32.62.39.69.34.62.34.63.1.2.24.55.26.56.27.61.25.54.1.21.06.24.15.53.18.64.21.73.18.66.1.53.14.71.17.9.15.78.04.17.04.57.03.65.05.81.06.77.03.67.02.72.04.77-.03.46-.04.7-.02.45-.03.49v.38s-.12.51-.12.51l-.13.68-.12.57-.05.24-.12.66-.09.51-.12.64-.14.26-.14.3-.23.47-.22.48-.24.48-.21.47-.23.53-.22.51-.26.56-.18.28-.15.23-.32.47-.35.49-.3.46-.18.26-.22.24-.28.29-.35.38-.3.32-.32.36-.51.51-.29.25-.25.2-.34.3-.32.25-.25.22-.27.2-.42.29-.36.26-.33.23-.49.34-.45.19-.37.15-.44.19-.37.15-.14.07-.43.12-.48.14-.32.1-.34.09-.12.05h-.45s-.45,0-.45,0h-.47s-.5,0-.5,0h-.62s-.48-.01-.48-.01l-.63-.02h-.67s-.35.15-.35.15l-.47-.47-.33-.34-.54-.56-.32-.32-.68-1.07-.85-1.41-.46-.7-.49-.78-.21-.35-.38-.71-.41-.72-.4-.73-.34-.64-.16-.29-.23-.72-.26-.76-.25-.74-.32-.96-.09-.29-.14-.59-.2-.94-.21-.93-.2-.94-.07-.3-.06-.68-.08-.76-.09-.86-.07-.72-.05-.55v-.34s.01-.23.01-.23v-.57s.03-.76.03-.76l.02-.58v-.72s.03-.82.03-.82l.06-.79.05-.78.06-.81.05-.8s.14-.71.25-1.25c.12-.54.22-.9.22-.9l.22-.63.22-.66.2-.6.15-.34.21-.43.27-.58.21-.48.3-.66.34-.73.35-.65.21-.32.27-.42.2-.31.36-.54.4-.63.37-.55.57-.72.39-.41.51-.54.55-.59s.53-.52.83-.73c.3-.21,1-.68,1-.68,0,0,.67-.36,1.38-.63.71-.27.9-.31,1.48-.45.57-.14,1.13-.21,1.13-.21h.66s.43-.03.43-.03l.03.03Z"/>
    <path class="cls-13" d="M58.12,124.45l.38-1.1.28-.84.28-.8.44-1.02s.08-.31.5-.94c.41-.63.62-1.02,1.16-1.57s1.59-1.56,1.59-1.56l.76-.59.72-.54.65-.39s.26-.2.62-.37c.36-.17.74-.34.74-.34,0,0,.35-.17.7-.29.35-.12.74-.2.74-.2,0,0,.32-.11.59-.14.27-.03.45-.12.96-.12s1.96,0,2.61.12c.64.12,1.34.29,1.81.43.46.14,1.41.57,1.41.57,0,0,.78.4,1.08.55,0,0,1.23.66,1.48.82s.43.28.76.55c.33.27.25.19.51.42.26.23.87.79.87.79l.61.6.37.42.43.49.47.53.42.47s.62.71.82.99c.19.27.39.59.39.59l.38.57.23.36.4.59s.23.38.43.73c.2.35.37.65.37.65l.38.79.37.75s.22.41.38.77c.16.36.25.67.25.67l.19.5.23.64.26.68s.16.46.29.86.23.75.23.75l.16.58.14.5.19.69s.06.28.09.51c.03.23.04.43.04.43l.02.64.02.5.02.3.02.53v.21s.03.53.03.53v.21s-.22.12-.22.12l-.45.25-.35.18-.39.23-.46.24-.23.13-.42.38-.26.24-.24-.06-.22-.04-.23-.05-.21-.04-.34-.06h-.19s-.25,0-.25,0h-.22s-.26,0-.26,0h-.19s-.3,0-.3,0h-.27s-.24,0-.24,0l-.42.02-.21.02h-.26s-.29.03-.29.03l-.39.02h-.13s-.22,0-.22,0h-.27s-.31,0-.31,0h-.19s-.18-.01-.18-.01h-.21s-.15,0-.15,0l-.21-.02h-.19s-.27-.03-.27-.03h-.17s-.2-.02-.2-.02l-.2-.02h-.14s-.2-.03-.2-.03h-.11s-.14-.01-.14-.01l-.13-.03-.17-.03-.16-.02-.19-.04-.17-.02-.18-.04h-.12s-.12-.03-.12-.03l-.14-.03-.16-.04-.18-.03-.2-.04-.17-.02-.28-.05-.22-.05-.24-.06-.28-.04-.24-.05-.27-.06-.26-.06-.23-.04-.2-.03-.15-.06-.16-.08-.16-.08-.18-.08-.16-.07-.17-.07-.21-.09-.16-.09-.19-.08-.16-.07-.2-.09-.22-.1-.2-.1-.16-.08-.28-.16-.26-.15-.27-.15-.38-.22-.18-.11-.31-.16-.2-.12-.28-.18-.3-.2-.25-.16-.23-.14-.25-.15-.23-.16-.19-.12-.18-.13-.19-.11-.25-.17-.14-.09-.1-.08-.2-.15-.15-.12-.17-.1-.2-.15-.15-.11-.18-.14-.17-.12-.12-.09-.18-.15-.19-.12-.17-.12-.18-.13-.16-.13-.15-.1-.11-.08-.12-.1-.15-.1-.1-.09-.15-.18-.1-.14-.18-.21-.13-.16-.12-.14-.2-.24-.21-.25-.24-.3-.27-.33-.29-.37-.24-.32-.15-.17-.12-.2-.13-.2-.1-.17-.13-.19-.15-.23-.09-.14-.11-.2-.09-.15-.1-.15-.12-.16-.11-.14-.09-.13-.09-.13-.08-.11-.08-.12-.1-.16-.1-.15-.11-.15-.08-.12-.11-.16-.07-.13-.1-.16-.11-.15-.1-.14-.07-.12-.09-.12-.08-.12-.07-.11"/>
  </g>
  <g id="Layer-9">
    <path class="cls-11" d="M66.93,124.8s1.1,3.82,4.86,3.42c3.76-.4,3.87-.78,3.87-.78,0,0,3.11-3.68-1.36-5.65l-2.74-.51s-4.82-.84-4.64,3.53Z"/>
    <path class="cls-8" d="M103.87,81.8l.59,1.05.82.94.75.58.6.45.32.31.37.3.3.25.38.29.22.19.13.1.39-.38.39-.22.4-.29.23-.11.44-.3.36-.15.33-.19.31-.21.17-.11.22-.12.39-.25-.32-.15-.61-.27-.41-.2-.47-.21-.52-.24-.48-.2c-.24-.07-.74-.22-.74-.22l-.69-.15-.61-.13-.68-.15-.69-.15s-.24-.05-.45-.07c-.21-.02-.61,0-.61,0h-.85Z"/>
    <path class="cls-6" d="M159.6,83.8l-.09.16-.16.21-.16.16-.21.3-.23.26-.29.26-.37.27-.33.17-.37.26-.51.29-.23-.39-.23-.42-.18-.28-.22-.3-.2-.18-.26-.22-.26-.26-.25-.22-.26-.28-.29-.29-.33-.32-.16-.18-.22-.24-.28-.28-.23-.25s.69.03,1.5.16c.81.13.96.16,1.63.32.67.16,1.09.31,1.52.44.42.13.54.18.83.31.29.13.54.31.62.34"/>
    <path class="cls-6" d="M139.64,125.46l.36-.31.22-.18.24-.21.19-.13.18-.16.31-.13.44-.04h.43s.44-.02.44-.02l.36.02.29-.02h.31s.25,0,.25,0h.35s.26-.02.26-.02l.3-.02h.28s.24.03.24.03l-.21.76.02.37.03.29-.06.44-.02.25-.15.41-.08.31-.11.41-.13.43-.11.34-.1.3-.09.32-.35-.12s-.16-.07-.33-.16c-.17-.09-.34-.21-.34-.21l-.33-.29-.37-.33-.23-.18-.37-.32-.49-.43-.39-.33-.39-.35-.38-.34"/>
    <path class="cls-12" d="M177.3,138.53l1.8.05,1.78.02,1.52-.33,1.87-.62,1.61-.88,1.51-.81,1.6-1.36,1.45-.93,1.94-1.74,1.4-1.7.85-1.39.65-1.81.65-1.82.31-1.52.2-2.09-.15-2.28-.32-1.32,1.11-.21.82,1.1.45.71.34.64.41.8.22.54.32.74.25.63.22.66.12.48.2.63.08.48.12.64.19.89.23,1.06.07.32.09.81.12,1.06.09,1.05.13,1.19.02.83v1.23s0,.71,0,.71v1.09s-.03,1.01-.03,1.01l-.02.98v.46s0,.42,0,.42l-.1.49-.13.58-.15.59-.18.82-.11.43-.19.65-.17.56-.24.81-.33,1.1-.2.61-.19.47-.24.56-.41.94-.32.78-.14.36-.34.57-.34.64-.49.87-.54.94-.13.25-.41.54-.48.65-.2.27-.5.67-.43.59-.3.39-.21.23-.4.43-.59.64-.66.72-.55.6-.58.63-1.05,1.09-.22.26-.45.33-.7.48-.6.42-.43.3-.78.55-.14.08-.29-.98-.12-.9-.28-1.23-.5-1.48-.46-1.3-.53-1.32-.31-.76-.75-1.38-.31-.49-.43-.75-.35-.61-.48-.93-.44-.82-.2-.36-.49-.7-.45-.64-.59-.8-.74-1.05-.89-1.13-1.05-1.36-.94-1.08-.69-.78-.85-.88-1.17-.79-.39-.31.91-.67h1.11s.98.01.98.01"/>
  </g>
  <g id="Layer-2">
    <path class="cls-5" d="M125.24,142.85l-.92.76-1.17.99-.71.68-.23.27.92.5.78.42.92.62.72.45.89.5.83.53.86.59.82.64.91.78.71.62.62.78,1.17,1.29.87,1.23,1.05,1.71,1.04,1.48.78,1.51.8,1.26,1.17,3.02.85,2.4.59,2.42.42,2.13.49,2.77.27,2.07.24,2.34.02,2.02-.11,2.73.02,2.47-.05,2.22-.33,2.43-.42,2.63-.58,2.56-1.2,3.08-1.09,3.3-1.73,3.62-1.82,3.57-1.93,3.02-2.3,2.81-2.61,3.15-1.94,2.2-2.36,1.89-.42.22.05.67-.53,1.24-1.17,2.37s-.35-.21-.95-.47c-.6-.26-1.44-.59-1.44-.59l-1.52-.76-1.41-.75-1.05-.54-1.38-.76-.86-.47-1.28-.72-.9-.52-1.68-.94s-.52-.31-1.14-.7c-.63-.4-1.36-.89-1.36-.89l-.63-.45-1.48-1.02-.95-.65-1.59-1.18-.75-.53-1.23-.92-.81-.6-.37-.27-.78-.65-1.45-1.19-.88-.72-.77-.63s-1.02-.97-1.67-1.59c-.65-.63-1.48-1.55-1.48-1.55l-1.2-1.49-.66-.77-1.1-1.34s-.3-.29-.66-.79c-.36-.5-1.58-1.9-2.41-3.21-.83-1.3-1.87-3.41-2.25-4.17-.39-.75-.66-1.58-.66-1.58l-.52-1.4-.26-.71-.44-1.33-.19-.61-.42-1.49-.28-.96-.18-.54s-.18-.72-.36-1.7c-.18-.98-.33-1.59-.37-2.22-.03-.63-.05-2.33-.05-2.33l.05-1.22.02-.75.05-1.63.08-1.88.21-2.07.31-2.89.42-1.67.6-2.81.62-1.55,1.05-2.8.69-1.51.89-1.94,1.35-2.16,1.74-2.78,1.9-2.12.98-1.15,2.86-2.47,1.28-.96,2.04-1.43,2.49-1.28,2.16-1.06,2.62-.71,1.97-.55,3.07-.64h3.56s1.19-.01,1.19-.01l2.18.19,1.9.23,2.77.93,2.95,1.18,1.09.42"/>
  </g>
  <g id="Layer-5">
    <path class="cls-11" d="M90.22,163.2s3.33,5.04,6.33-1.18c1.72-3.57,2.29-4.07,2.85-4.39.42-.23.66-.56,2.28-.91,3.82-.82,1.58-6.14-1.13-6.34-2.71-.2-5.99,1.46-7.18,3.07-.68.93-2.47,3.02-3.16,5.11-.51,1.53,0,4.64,0,4.64Z"/>
    <path class="cls-15" d="M124.9,142.7l-.96.8-.97.65-.71.6-1.32.92,1.76.66,1.24.56,1.12.4,1.08-.05,1.39-.83,1.67-1.22-.68-.45-.57-.37-.31-.23-1.21-.64-.76-.45-.51-.3-.26-.08Z"/>
    <path class="cls-16" d="M127.96,144.53l.18.15.43.22.54.38.44.36.37.23.31.2.39.27.37.27.3.22.37.23.42.33.45.33.44.31.37.3.4.31.19.14.17.17.44.46.42.43.32.33.4.42.28.28.43.46.3.3.63.65.31.32.37.52.47.65.27.38.44.61.25.37.51.71.43.61.25.34.31.78.28.7.2.51.28.69.17.46.31.78.17.43.27.67.2.53.3.76.16.4.31.81.19.48.22.57.16.41.13.33.12.42.2.73.09.31.15.54.16.56.15.49.14.54.15.49.1.4.14.68.1.52.14.63.15.74.09.38.11.51v.8s.03.91.03.91l.02,1.04v.47s.02.97.02.97v.43s.03,1.09.03,1.09l-.06.93-.03.51-.07.94-.03.54-.06.98-.04.6-.12.69-.11.55-.15.82-.21,1.09-.13.62-.09.48-.11.56-.04.17-.26.85-.14.47-.27.95-.69,2.28-.47,1.47-.57,1.75-.17.54-.43,1.04-.55,1.34-.38.94-.26.7-.55,1.02-.77,1.5-.72,1.43-.74,1.4-.7,1.32-.58,1.06-.28.57-.77,1.01-.93,1.18-1,1.3-.33.48-.7.76-.96,1.05-.46.54-1.16,1.24-.72.74-.85.92-.69.79-.67.57-.72.69-.85.4-1.76.55-.9.29-1.12.33-1.09.07v-.72s1.73-1.3,1.73-1.3l.83-.69,1.49-1.58,1.42-1.65.9-1.09,1.33-1.62,1.94-2.42s.37-.5.71-1.02c.08-.12,1-1.61,1-1.61l.62-1.04.25-.5.35-.74.32-.63.27-.52.26-.47.34-.71.31-.65.32-.65.22-.47.34-.77.33-.69.37-1.09.15-.52.19-.61.41-1.22.26-.61.36-.91.41-1.08.13-.41.3-1.12.29-1.47.07-.88.2-1.24.06-.64.08-.74v-.59s.06-1.02.06-1.02l.05-.69.1-1.21v-1.42s.09-1.24.09-1.24l.03-1.5v-1.15s-.04-1.46-.04-1.46l.02-1.31-.13-1.66-.18-1.36-.19-1.08-.36-1.87-.34-2.29-.37-1.7-.38-1.28-.42-1.22-.64-1.75-.86-2.08-.75-1.36-.83-1.41-1.12-1.85-.73-1.12-1.23-1.97-1.26-1.38-.96-.81-1.72-1.44-1.73-1.09-2.02-1.45,2.62-1.74"/>
    <path class="cls-4" d="M127.45,228.45l.13-.8-.13-1.5-.43-1.8-.44-2.06-.64.18-.86.07-.45.23-.63.35-.12,1.63v.73s-.17,1.51-.17,1.51l3.74,1.46Z"/>
    <path class="cls-14" d="M125.67,221.22l-.37.13-.23.06-.17.05-.28.14-.48.14-.5.09-.69.26-.93.3-.61.13-.05.4-.19.65-.23.42-.22.45-.2.41-.28.48-.27.35.67.23.73.27.64.22.47.18.86.3.6.2.06-.55.06-.46.04-.36v-.68s.02-.39.02-.39l.07-1.02.33-.23.34-.24.31-.09.63-.14v-.56s.12-1.26.12-1.26l-.26.12Z"/>
  </g>
  <g id="Layer-10">
    <path class="cls-9" d="M135.05,142.17l.73.61.96.88.37.29,1.26.84.48.34.17.11.34.27.5.4.4.33.67.53.51.4.59.46.42.52.48.6.25.29.38.48.64.78.43.52.38.47.68.88.41.53.58.76.39.52.46.76.6,1.02.27.47.45.75.16.27.28.61.23.49.43.86.29.62.46.99.26.58.48,1.1.3.7.32.72.19.44.18.74.12.48.25,1,.11.49.29,1.2.13.5.22.9.14.55.23.98.11.44.15.57.02.44.05.71.05.66.06.86.06.56.07,1.04.04.42-.04.84-.03.72-.05,1.1-.02.57-.04.99-.03.78-.07.98-.06.73-.08.95-.05.77-.07.82-.04.6-.19.84-.12.61-.23,1-.22,1.08-.27,1.28-.33.97-.13.47-.35,1.03-.43,1.37-.38,1.18-.22.66-.64,1.16-.55,1.02-.64,1.19-.74,1.34-.82,1.53-.18.34-1,1.47-1.14,1.66-.99,1.49-.91,1.02-1.39,1.59-1.47,1.68-.39.43-1.77,1.51-2.36,2.03-1.64,1.15-1.6,1.14-1.97,1.24-2.19,1.36-2.46,1.07.03.27.03.47.13.6.05.25.34,1.07.15.51.14.74.03.84.1.46.12.57h.3s.45-.04.45-.04l.86-.1.7-.09.96-.11s.8-.22,1.4-.32c.6-.1,1.18-.27,1.18-.27l.78-.2s.77-.29,1.26-.45c.49-.15.83-.31.83-.31l1.1-.4.88-.31,1.1-.53,1.08-.48,1.27-.56,1.15-.52,1.26-.58,1.25-.58,1.28-.62,1.26-.64,1.24-.6.62-.44,1.17-.78,1.29-.88,1.66-1.09,1.51-.95,1.58-.99,1.42-1.14,1.48-1.2,1.26-.97,1.51-1.18,1.64-1.31,1.16-1.31,1.31-1.47,1.51-1.64,1.39-1.39,1.31-1.31.46-.48.53-.95.74-1.3.68-1.21.73-1.3.77-1.31.81-1.4.82-1.39.51-1.58.6-1.81.46-1.44.48-1.81.42-1.49.43-1.61.13-.49.12-1.49.19-2.12.17-1.99.11-1.47-.11-1.95-.14-2.11-.09-1.6-.41-1.92-.47-2.25-.33-1.28-.51-1.27-.63-1.77-.69-1.71-1.2-2.38-1.36-2.78-1.89-2.97-.68-1.03-2.46-2.44-2.74-2.36-2.74-2.18-3.54-1.94-1.3-.69-3.89-1.41-.9-.28-5.12-.76-4.66.23-3.36.71-1.18.33-1.63.48-1.01.31-1.93,1.13"/>
  </g>
  <g>
    <path class="cls-21" d="M27.61,20.65c5.72-4.2,11.35-6.6,16.51-7.36,5.18-.75,8.23.04,9.26,1.97.28.53.36,1.06.25,1.6-.12.54-.36,1.01-.73,1.42-.37.41-.82.76-1.34,1.05-.86.48-2.32.88-4.4,1.26-2.08.38-4.37.92-6.84,1.65-2.48.73-4.59,1.73-6.3,2.95-2.74,1.96-3.49,3.77-2.33,5.29.36.48.92.77,1.66.89.75.12,1.76.06,3.03-.15,1.27-.21,2.48-.44,3.62-.7,1.14-.26,2.7-.61,4.67-1.02,1.97-.4,3.63-.68,5-.86,4.37-.61,7.61-.46,9.74.2,2.14.66,3.66,1.95,4.62,3.79,3.76,7.49-.02,13.64-10.26,20.85-2.03,1.45-4.09,2.74-6.22,3.88-2.12,1.14-4.09,2.05-5.93,2.7-1.84.65-3.57,1.16-5.21,1.49-1.64.33-3.04.45-4.22.31-1.17-.14-2.05-.47-2.61-1.04-.62-.62-.89-1.41-.8-2.37.09-.96.66-1.95,1.7-2.93.78-.73,3.03-2.14,6.77-3.93,3.73-1.78,6.55-3.28,8.47-4.72,1.76-1.31,2.31-2.44,1.59-3.46-.21-.29-.47-.51-.78-.66-.32-.14-.73-.21-1.25-.21-.52,0-1.07.06-1.65.16-.58.1-1.37.28-2.36.52-.99.25-1.98.51-2.98.79-.99.28-2.3.65-3.91,1.16-1.61.51-3.19,1.01-4.73,1.52-2.03.67-3.99,1.06-5.89,1.14-1.9.09-3.53-.05-4.86-.45-1.33-.4-2.37-.96-3.1-1.7-2.36-2.38-2.76-5.89-.89-10.5,1.87-4.58,6.07-9.67,12.7-14.54Z"/>
    <path class="cls-21" d="M107.88,21.03c1.19-.2,1.9-.56,2.13-1.1.22-.54.24-1.48.03-2.83-.51-3.54-1.03-7.09-1.54-10.63-.28-1.82.18-3.26,1.42-4.3,1.23-1.04,3.49-1.77,6.75-2.08,1.42-.13,2.59-.11,3.5.07.91.17,1.71.51,2.4,1.01.68.5,1.22,1.29,1.61,2.38.39,1.08.69,2.39.91,3.92.22,1.53.38,3.5.49,5.89.09,2.12-.22,4.06-.89,5.84-.67,1.78-1.55,3.24-2.61,4.4-1.07,1.16-2.31,2.18-3.74,3.06-1.42.89-2.84,1.58-4.28,2.07-1.44.5-2.88.87-4.34,1.11-3.49.59-6.86.25-10.3-1.01-2.43,2.69-5.26,4.52-8.65,5.61-1.42.46-2.88.79-4.37,1.01-1.5.22-3.09.26-4.8.14-1.71-.12-3.32-.43-4.85-.95-1.52-.52-3-1.4-4.43-2.66-1.43-1.26-2.61-2.84-3.51-4.76-1.67-3.59-2.71-6.34-3.07-8.27-.37-1.92-.19-3.46.53-4.59.72-1.13,2.21-2.18,4.44-3.08,2.09-.84,3.84-1.28,5.22-1.37,1.39-.08,2.47.16,3.24.69.77.54,1.35,1.4,1.75,2.57,1.18,3.36,2.35,6.72,3.52,10.09.19.57.34.97.45,1.21.11.24.27.52.48.85.21.33.43.53.65.6.22.07.51.11.86.12.35.01.77-.06,1.26-.22,1.79-.57,2.71-1.31,2.77-2.29-1.09-2.18-2.04-4.59-2.84-7.23-.67-2.22-1.09-3.98-1.26-5.29-.17-1.3-.04-2.44.42-3.41.46-.96,1.17-1.71,2.13-2.21.96-.51,2.39-1.01,4.3-1.47,1.7-.41,3.08-.59,4.11-.56,1.03.02,1.94.37,2.71,1.03.77.66,1.38,1.62,1.83,2.85.45,1.24.88,3,1.31,5.28.52,2.75.81,5.34.9,7.77.49.8,1.6,1.03,3.35.73Z"/>
    <path class="cls-21" d="M149.8,29.47c-5.26-.68-9.5-2.2-12.97-4.84-3.46-2.63-5.35-6.03-5.38-10.39-.03-4.71,1.87-8.49,6.01-11.11,4.13-2.6,9.63-3.66,16.16-2.81,6.15.81,10.49,2.54,12.92,4.75,2.44,2.23,3.24,4.78,2.56,7.57-.13.55-.35,1.05-.64,1.51-.29.46-.67.9-1.15,1.3-.47.4-1.06.74-1.74,1.01-.69.28-1.44.5-2.27.67-.83.17-1.78.24-2.85.22-1.07-.02-2.19-.14-3.37-.33-3.33-.54-6.68-.97-10.03-1.28.35,1.32,1.09,2.41,2.21,3.29,1.12.88,2.59,1.44,4.43,1.71,1.98.3,4.03.42,6.18.39.91-.03,1.93-.15,3.06-.36,1.13-.21,1.93-.25,2.39-.14.78.18,1.35.52,1.69,1.02.34.5.44,1.03.29,1.62-.17.7-.75,1.45-1.7,2.27-.95.82-2.17,1.58-3.64,2.31-1.47.72-3.28,1.24-5.44,1.58-2.16.34-4.38.36-6.71.05ZM147.07,11.89c3.37.29,5.19.54,5.49.57.73.1,1.31-.18,1.76-.85.32-.48.55-1.17.68-2.08.37-2.49-.41-3.89-2.35-4.14-.71-.09-1.45.12-2.2.64-.75.52-1.44,1.3-2.05,2.34-.61,1.04-1.05,2.22-1.33,3.52Z"/>
    <path class="cls-21" d="M187.31,40.01c-4.93-2.19-8.61-4.87-11.22-8.4-2.6-3.51-3.47-7.31-2.26-11.51,1.3-4.53,4.21-7.61,8.97-8.93,4.74-1.31,10.37-.74,16.48,1.98,5.76,2.57,9.5,5.53,11.25,8.38,1.75,2.87,1.82,5.57.36,8.04-.28.48-.64.9-1.05,1.26-.42.36-.91.66-1.49.9-.58.24-1.24.39-1.99.45-.75.06-1.55.05-2.41-.03-.86-.08-1.8-.29-2.84-.63-1.04-.34-2.1-.78-3.2-1.32-3.1-1.5-6.23-2.89-9.4-4.17-.04,1.37.37,2.63,1.22,3.8.84,1.17,2.12,2.13,3.83,2.94,1.84.86,3.81,1.59,5.92,2.2.9.24,1.92.43,3.09.57,1.16.14,1.96.34,2.38.58.72.41,1.17.91,1.36,1.49.19.58.13,1.13-.17,1.64-.37.62-1.14,1.17-2.31,1.67-1.16.5-2.57.87-4.21,1.12-1.64.26-3.56.21-5.76-.1-2.21-.31-4.37-.95-6.56-1.92ZM189.63,22.35c3.19,1.26,4.9,2.03,5.17,2.15.68.31,1.33.21,1.95-.3.45-.37.87-.96,1.25-1.8,1.07-2.28.7-3.85-1.11-4.66-.67-.3-1.45-.31-2.33-.03-.88.28-1.77.83-2.66,1.65-.89.82-1.65,1.82-2.29,2.99Z"/>
    <path class="cls-21" d="M216.4,41.28c1.34-1.94,2.68-3.89,4.02-5.83-1.05-.77-1.82-1.49-2.3-2.17-.49-.68-.75-1.31-.77-1.9-.03-.59.15-1.19.54-1.79,1.22-1.92,3.47-1.99,6.69-.02,1.06-1.53,2.11-3.06,3.17-4.59.86-1.25,2.93-1.51,6.22-.62,3.29.9,6.21,2.4,8.68,4.43,1.51,1.24,2.23,2.37,2.19,3.33-.05.96-.57,2.02-1.57,3.16-1.48,1.76-2.97,3.52-4.45,5.27.57.49,1.13.99,1.69,1.49,2.29,2.04,3.62,3.73,4.04,4.94.42,1.21.09,2.36-.98,3.45-.45.46-.95.73-1.49.81-.54.09-1.16-.04-1.85-.37-.69-.33-1.44-.81-2.25-1.43-.81-.62-1.77-1.43-2.89-2.41-.36-.32-.72-.63-1.08-.95-1.44,1.66-2.88,3.33-4.32,4.99-.42.48-.74.91-.96,1.28-.22.37-.35.69-.4.97-.04.28,0,.54.16.78.15.24.38.49.68.76.45.4.93.61,1.46.63.52.02,1.01-.05,1.47-.2.45-.15.93-.23,1.45-.21.51.01.95.2,1.33.55.86.81,1.36,1.61,1.5,2.38.15.77-.01,1.37-.46,1.82-.76.76-1.77,1.39-3.01,1.91-1.24.52-2.62.85-4.11,1.02-1.5.17-3.11-.04-4.86-.59-1.74-.55-3.37-1.48-4.93-2.78-3.5-2.92-5.46-5.59-5.85-8.34-.38-2.73.66-5.99,3.25-9.75Z"/>
  </g>
  <g>
    <path class="cls-21" d="M43.14,245.93c2.9,4.33,3.65,8.04,1.87,11.28-.77,1.4-1.87,2.54-3.33,3.4-1.46.86-3.22,1.39-5.31,1.55-2.09.16-4.54-.2-7.33-1.16-2.79-.96-5.71-2.49-8.68-4.62-5.48-3.93-10.79-8.2-15.91-12.8-2.69-2.42-4.16-4.69-4.41-6.68-.26-1.99.77-4.11,3.03-6.37,5.98-5.98,11.96-11.96,17.95-17.95.96-.96,2.02-1.6,3.16-1.94,1.14-.33,2.38-.3,3.72.1,1.34.39,2.63,1.17,3.91,2.31,3.95,3.54,8.04,6.83,12.26,9.87,3.66,2.68,6.2,5.6,7.69,9.02,1.49,3.41,1.53,6.56-.13,9.49-.53.94-1.09,1.71-1.69,2.32-.6.6-1.25,1.07-1.96,1.4-.71.33-1.44.55-2.21.66-.76.11-1.64.14-2.63.1ZM39.07,233.53c.96-1.38.97-2.77.07-4.18-.9-1.42-2.8-3.19-5.65-5.47-1.91,2.39-3.83,4.78-5.74,7.17,1.87,1.5,3.5,2.56,4.86,3.23,1.36.67,2.61.96,3.72.89,1.12-.06,2.02-.62,2.73-1.63ZM30.77,247.27c.75-1.09.95-2.18.63-3.29-.32-1.11-1.08-2.27-2.26-3.51-1.18-1.24-2.94-2.75-5.24-4.6-2.16,2.7-4.33,5.4-6.49,8.1,3.42,2.74,6.26,4.34,8.42,4.93,2.16.59,3.81.02,4.94-1.63Z"/>
    <path class="cls-21" d="M67.55,281.32c-6.5-2.26-11.33-5.67-14.31-9.79-2.99-4.14-3.35-8.21-1.4-12.1,2.12-4.23,5.59-6.63,10.23-7.52,4.65-.9,9.59-.3,15.15,1.64,5.25,1.82,8.92,3.68,11.03,5.96,2.11,2.27,2.9,4.77,2.24,7.58-.13.55-.34,1.05-.63,1.52-.29.47-.68.9-1.17,1.29-.49.4-1.1.72-1.83.97-.73.25-1.54.43-2.42.55-.89.12-1.91.1-3.06-.04-1.15-.14-2.35-.4-3.6-.79-3.53-1.07-7.02-2.25-10.49-3.54.03,1.38.57,2.67,1.63,3.83,1.05,1.17,2.6,2.1,4.64,2.77,2.19.72,4.51,1.2,6.93,1.43,1.03.08,2.18.07,3.44-.05,1.26-.12,2.15-.13,2.66,0,.87.22,1.5.57,1.9,1.08.4.5.53,1.05.39,1.63-.16.7-.78,1.45-1.85,2.25-1.08.79-2.5,1.5-4.27,2.09-1.77.59-4.03.89-6.75.83-2.72-.06-5.55-.58-8.43-1.58ZM68.28,263.32c3.32,1.22,5.15,1.81,5.44,1.91.73.25,1.38.09,1.94-.48.41-.41.75-1.06,1.04-1.93.79-2.4.3-3.88-1.46-4.49-.65-.23-1.38-.17-2.22.17-.83.34-1.68.93-2.53,1.78-.86.85-1.6,1.87-2.21,3.04Z"/>
    <path class="cls-21" d="M108.39,290.55c-4.39-.49-7.85-2.32-10.22-5.34-2.38-3.03-3.04-6.77-2.17-11.16.88-4.48,2.86-7.78,5.76-10.02,2.91-2.24,6.14-3.12,9.88-2.7,3.79.42,7.19,1.81,10.4,4.23,1.39-1.94,3.46-2.86,6.28-2.85,2.54.01,4.53.43,5.98,1.33,1.45.89,2.26,2.58,2.38,5.1.24,5.19.48,10.39.72,15.58.11,2.4-.49,4.1-1.84,5.09-1.35.99-3.79,1.53-7.3,1.52-3.68-.02-6.08-.87-7.16-2.39-3.59,1.57-7.88,2.14-12.71,1.61ZM120.75,271.26c-.79-1.2-1.83-1.84-3.16-1.93-1.28-.09-2.36.58-3.29,2.03-.93,1.44-1.5,3.14-1.69,5.09-.18,1.83.05,3.5.72,5.01.66,1.5,1.73,2.32,3.17,2.42,1.5.1,2.74-.37,3.69-1.4.19-3.74.37-7.47.56-11.21Z"/>
    <path class="cls-21" d="M159.41,259.37c4.3-.84,8.02-.97,11.29-.27,3.27.69,5.21,1.83,5.73,3.55.15.5.02,1.04-.38,1.61-.41.58-1.02.98-1.84,1.21-.72.2-1.58.22-2.56.04-.98-.18-1.91-.41-2.79-.68-.88-.28-1.99-.46-3.33-.57-1.33-.11-2.69-.02-4.07.26-1.87.37-2.72,1.01-2.54,1.95.12.67.71,1.11,1.76,1.32,1.05.2,2.56.33,4.55.35,1.98.02,3.51.08,4.59.22,3.96.21,6.85.67,8.62,1.54,1.77.87,3.01,2.33,3.67,4.43.32,1.03.26,2.17-.21,3.42-.47,1.25-1.37,2.56-2.71,3.92-1.34,1.35-3.33,2.68-5.99,3.93-2.66,1.24-5.82,2.24-9.45,2.92-7.11,1.33-12.65.77-16.37-1.23-1.81-.99-2.74-2.12-2.85-3.35-.06-.76.22-1.38.84-1.88.62-.5,1.54-.81,2.75-.94,1.21-.13,3.1.11,5.71.66,2.61.55,5.01.61,7.13.24,2.92-.53,4.26-1.37,4.04-2.42-.11-.55-.96-.83-2.53-.88-1.57-.05-3.63-.09-6.14-.19-2.52-.09-4.54-.44-6.08-.98-2.36-.48-4.04-1.27-5.04-2.32-1-1.05-1.55-2.4-1.7-4.03-.24-2.79,1.2-5.19,4.16-7.32,2.96-2.14,6.83-3.57,11.74-4.52Z"/>
    <path class="cls-21" d="M189.42,267.74c-.82-2.21-1.64-4.43-2.45-6.64-1.19.4-2.2.57-3.01.54-.81-.04-1.44-.23-1.9-.58-.46-.35-.8-.87-1.03-1.55-.72-2.17.47-3.85,3.52-5.18-.65-1.74-1.29-3.49-1.94-5.23-.53-1.43.2-3.14,2.06-5.19,1.86-2.06,3.86-3.57,6.07-4.58,1.35-.62,2.38-.69,3.12-.21.74.49,1.44,1.41,2.11,2.78,1.03,2.06,2.06,4.12,3.09,6.17.59-.29,1.18-.58,1.76-.87,2.39-1.2,4.14-1.83,5.31-1.8,1.16.03,2.12.69,2.86,2.02.31.56.44,1.1.39,1.64-.05.53-.32,1.07-.81,1.61-.49.54-1.14,1.08-1.95,1.62-.81.54-1.85,1.13-3.13,1.77-.41.2-.82.41-1.23.61.96,1.98,1.93,3.96,2.89,5.94.28.58.55,1.03.8,1.38.26.34.51.59.76.73.25.14.53.19.83.13.3-.06.64-.19,1.03-.38.58-.29.98-.69,1.21-1.19.23-.5.35-.99.37-1.48.02-.48.13-.97.32-1.46.19-.49.52-.85.99-1.11,1.07-.58,2-.85,2.8-.79.8.06,1.36.36,1.67.92.53.94.86,2.09.97,3.45.11,1.36-.05,2.83-.48,4.38-.43,1.55-1.36,3.14-2.8,4.73-1.44,1.59-3.31,2.94-5.57,3.99-5.1,2.37-9.18,2.91-12.02,1.88-2.86-1.04-5.03-3.74-6.6-8.02Z"/>
    <path class="cls-21" d="M227.05,228.23c3.61-2.86,7-4.83,10.35-5.86,3.35-1.02,5.67-1,6.93.29.36.37.49.92.37,1.64-.12.72-.51,1.4-1.17,2.02-.58.55-1.37.99-2.36,1.33-.99.33-1.96.59-2.9.79-.95.19-2.06.58-3.34,1.15-1.29.57-2.5,1.31-3.66,2.24-1.56,1.25-2.06,2.23-1.47,3,.42.54,1.16.65,2.22.32,1.07-.33,2.53-.96,4.37-1.93,1.84-.97,3.29-1.68,4.36-2.09,3.78-1.79,6.66-2.85,8.71-2.97,2.04-.12,3.85.56,5.41,2.12.76.76,1.22,1.83,1.34,3.19.12,1.37-.12,3-.76,4.9-.64,1.89-1.89,4.09-3.8,6.53-1.91,2.44-4.39,4.9-7.44,7.28-5.98,4.66-11.34,6.81-15.65,6.79-2.11-.02-3.48-.59-4.13-1.64-.4-.64-.43-1.34-.08-2.08.35-.74,1.05-1.45,2.1-2.14,1.06-.7,2.9-1.38,5.56-2.15,2.66-.77,4.9-1.87,6.69-3.24,2.46-1.9,3.33-3.31,2.65-4.15-.35-.44-1.26-.27-2.74.46-1.48.73-3.4,1.69-5.76,2.83-2.37,1.14-4.39,1.8-6.04,2.06-2.4.71-4.29.79-5.69.33-1.39-.47-2.52-1.4-3.38-2.8-1.48-2.38-1.24-5.2.51-8.52,1.76-3.32,4.68-6.46,8.79-9.72Z"/>
  </g>
</svg>